<svg width="134" height="107" viewBox="0 0 134 107" fill="none" xmlns="http://www.w3.org/2000/svg">
<g clip-path="url(#clip0)">
<path d="M31.4487 86.2928C31.4487 86.2928 34.1685 89.0637 32.6333 93.1752C31.0981 97.2868 35.2655 104.126 35.2655 104.126L35.1327 104.104C29.5456 103.1 26.766 96.5901 29.8762 91.7547C31.0423 89.958 31.9892 87.8487 31.4487 86.2928Z" fill="#F92626"/>
<path d="M31.4487 86.2928C31.4487 86.2928 32.9839 89.6901 31.4487 92.4609C29.9134 95.2317 31.1831 103.014 35.2655 104.126" stroke="#535461" stroke-miterlimit="10"/>
<path d="M26.6091 97.5019C26.6091 97.5019 29.7128 96.9986 29.9957 99.8317C30.2785 102.665 35.9639 103.058 35.9639 103.058L35.8577 103.13C31.163 106.27 26.6755 105.13 27.3582 100.965C27.5972 99.4123 27.5826 97.855 26.6091 97.5019Z" fill="#F92626"/>
<path opacity="0.2" d="M26.6091 97.5019C26.6091 97.5019 29.7128 96.9986 29.9957 99.8317C30.2785 102.665 35.9639 103.058 35.9639 103.058L35.8577 103.13C31.163 106.27 26.6755 105.13 27.3582 100.965C27.5972 99.4123 27.5826 97.855 26.6091 97.5019Z" fill="#F5F5F5"/>
<path d="M26.6091 97.5019C26.6091 97.5019 29.0182 98.0431 28.8203 100.273C28.6225 102.502 32.3981 105.18 35.9639 103.06" stroke="#535461" stroke-miterlimit="10"/>
<path opacity="0.1" d="M117.914 49.6834C119.433 52.8615 118.467 57.4209 120.618 60.0185C122.196 61.9235 124.815 61.9126 126.604 63.5199C127.995 64.7741 128.689 66.8265 129.319 68.7747L132.385 78.2453C133.78 82.5585 134.973 88.1109 132.161 91.2727C130.476 93.1668 127.93 93.382 125.629 93.1804C108.971 91.7205 95.5723 74.6059 78.9716 72.3965C67.2383 70.8339 55.6458 76.9817 43.8447 76.6421C37.6028 76.4621 31.5084 74.4774 25.4857 72.4967C20.8535 70.9773 15.7126 68.979 13.504 63.8568C12.5173 61.5676 12.2105 58.8022 10.7443 56.9203C9.62081 55.4767 7.9966 54.7935 6.60082 53.7477C0.520999 49.1869 -0.176228 38.9858 0.353665 30.396C0.647164 25.6309 1.14385 20.7522 2.99383 16.5229C4.84381 12.2937 8.32463 8.79632 12.2982 8.65832C14.8108 8.57038 17.212 9.79073 19.6569 10.4726C22.1018 11.1545 24.9691 11.1748 26.8045 9.11967C28.3105 7.43256 28.7833 4.72262 30.2893 3.03145C31.4619 1.71775 33.0981 1.20769 34.6798 0.895163C43.186 -0.785185 52.2473 2.13175 58.9181 8.6962C60.5396 10.2913 62.0841 12.1313 64.0656 12.9498C66.7044 14.0389 69.589 13.1162 72.3792 13.1392C82.2227 13.2204 88.8988 24.0737 95.8366 30.9155C99.8924 34.9161 103.816 35.7779 108.217 38.4432C110.94 40.0938 116.271 46.2483 117.914 49.6834Z" fill="#F92626"/>
<path d="M40.6083 48.696H34.6533V104.118H40.6083V48.696Z" fill="url(#paint0_linear)"/>
<path d="M47.1036 106.599H28.4272L35.0595 102.325H40.0663L47.1036 106.599Z" fill="url(#paint1_linear)"/>
<path d="M8.39893 20.2965C8.39893 20.2965 33.5735 -5.06698 66.1851 20.2965V42.2141C66.1851 42.2141 40.6082 57.9312 8.40025 42.2141L8.39893 20.2965Z" fill="url(#paint2_linear)"/>
<path d="M10.2263 20.854C10.2263 20.854 33.8059 -2.909 64.3577 20.854V41.3889C64.3577 41.3889 40.3983 56.1115 10.2263 41.3889V20.854Z" fill="url(#paint3_linear)"/>
<path d="M44.3958 32.9803H30.0515V45.3881H44.3958V32.9803Z" fill="url(#paint4_linear)"/>
<path d="M43.1779 34.0329H31.2693V44.3342H43.1779V34.0329Z" fill="url(#paint5_linear)"/>
<g opacity="0.1">
<path opacity="0.1" d="M42.2442 64.2982L37.7196 56.3564L33.7062 64.0195L30.2241 55.9884L26.6011 64.1656L26.475 64.1142C27.9358 59.7685 26.4869 47.45 26.475 47.3255L26.4192 46.8642L30.228 55.6488L33.4034 48.4783L37.7236 56.0642L41.6745 48.5094L45.0212 56.2901L48.2696 47.3918L49.0824 47.2268L49.0638 47.3269C49.0399 47.4541 46.8207 59.3681 48.0824 63.4079L48.3825 64.106L48.263 64.1696C48.1332 63.9441 48.0298 63.7039 47.9549 63.4539L45.0331 56.6581L42.2442 64.2982ZM37.7939 56.2089L42.2164 63.9762L44.9535 56.4795L41.6626 48.8287L37.7939 56.2089ZM30.2931 55.8152L33.7062 63.7042L37.6346 56.2116L33.41 48.78L30.2931 55.8152ZM26.6516 47.7571C26.8827 49.8785 27.7818 58.9283 26.8309 63.2956L30.151 55.8152L26.6516 47.7571ZM45.1009 56.4768L47.7663 62.6733C46.9562 58.2627 48.6959 48.5878 48.9137 47.4054L48.3732 47.515L45.1009 56.4768Z" fill="url(#paint6_linear)"/>
</g>
<g opacity="0.1">
<path opacity="0.1" d="M30.4552 64.3158L27.0979 55.753L27.2241 55.7016L30.4619 63.9545L33.7063 56.4119L29.3808 48.3159L29.499 48.2496L33.774 56.2522L37.0158 48.7191H37.0556L46.6814 47.7923L37.7648 64.0046L33.79 56.5634L30.4552 64.3158ZM33.859 56.4051L37.7661 63.7191L46.4396 47.9506L37.1114 48.849L33.859 56.4051Z" fill="url(#paint7_linear)"/>
</g>
<g opacity="0.1">
<path opacity="0.1" d="M44.8116 63.8909L44.7425 63.7556L36.7583 48.0385L36.8791 47.9749L44.7943 63.5554L47.7692 55.7029L47.8953 55.753L44.8116 63.8909Z" fill="url(#paint8_linear)"/>
</g>
<path d="M37.4952 45.2501C31.1418 45.2501 25.9929 46.1146 25.9929 47.1808C25.9929 48.2469 31.1431 49.1114 37.4952 49.1114C43.8472 49.1114 48.9974 48.2469 48.9974 47.1808C48.9974 46.1146 43.8472 45.2501 37.4952 45.2501ZM37.4952 48.2834C31.665 48.2834 26.9398 47.7273 26.9398 47.0428C26.9398 46.3582 31.665 45.8035 37.4952 45.8035C43.3253 45.8035 48.0492 46.3568 48.0492 47.0428C48.0492 47.7287 43.324 48.2834 37.4952 48.2834Z" fill="url(#paint9_linear)"/>
<g opacity="0.2">
<path opacity="0.2" d="M37.4952 45.2501C31.1418 45.2501 25.9929 46.1146 25.9929 47.1808C25.9929 48.2469 31.1431 49.1114 37.4952 49.1114C43.8472 49.1114 48.9974 48.2469 48.9974 47.1808C48.9974 46.1146 43.8472 45.2501 37.4952 45.2501ZM37.4952 48.2834C31.665 48.2834 26.9398 47.7273 26.9398 47.0428C26.9398 46.3582 31.665 45.8035 37.4952 45.8035C43.3253 45.8035 48.0492 46.3568 48.0492 47.0428C48.0492 47.7287 43.324 48.2834 37.4952 48.2834Z" fill="url(#paint10_linear)"/>
</g>
<path d="M37.4952 44.8375C31.1418 44.8375 25.9929 45.702 25.9929 46.7681C25.9929 47.8342 31.1431 48.6987 37.4952 48.6987C43.8472 48.6987 48.9974 47.8342 48.9974 46.7681C48.9974 45.702 43.8472 44.8375 37.4952 44.8375ZM37.4952 47.8708C31.665 47.8708 26.9398 47.3147 26.9398 46.6301C26.9398 45.9455 31.6664 45.3895 37.4952 45.3895C43.324 45.3895 48.0492 45.9388 48.0492 46.6288C48.0492 47.3188 43.324 47.8694 37.4952 47.8694V47.8708Z" fill="url(#paint11_linear)"/>
<path d="M40.5458 48.8665H34.7024V103.255H40.5458V48.8665Z" fill="#E8EAF1"/>
<path d="M46.9204 105.69H28.5933L35.1007 101.496H40.0145L46.9204 105.69Z" fill="#E8EAF1"/>
<path d="M8.93823 20.996C8.93823 20.996 33.64 -3.89802 65.646 20.996V42.5077C65.646 42.5077 40.5458 57.9312 8.93823 42.5077V20.996Z" fill="#E8EAF1"/>
<path d="M10.731 21.544C10.731 21.544 33.8709 -1.77659 63.853 21.544V41.6946C63.853 41.6946 40.3465 56.1427 10.731 41.6946V21.544Z" fill="#F3F5F7"/>
<path d="M44.2643 33.4431H30.187V45.6195H44.2643V33.4431Z" fill="white"/>
<path d="M43.0692 34.4767H31.3823V44.5858H43.0692V34.4767Z" fill="#F3F5F7"/>
<path opacity="0.1" d="M42.1528 64.1777L37.7118 56.3794L33.7661 63.9031L30.3491 56.0222L26.8005 64.0478L26.677 63.9978C28.1166 59.732 26.689 47.6435 26.677 47.5217L26.6226 47.0685L30.361 55.6894L33.478 48.6541L37.7171 56.0953L41.6043 48.6812L44.8886 56.3172L48.0759 47.584L48.8727 47.4216L48.8541 47.5204C48.8302 47.6462 46.6522 59.3369 47.8913 63.3024L48.1861 63.987L48.0679 64.0492C47.9404 63.828 47.8388 63.5923 47.7651 63.347L44.8965 56.677L42.1528 64.1777ZM37.7862 56.2387L42.1262 63.8611L44.8115 56.5052L41.583 48.9964L37.7862 56.2387ZM30.4234 55.8572L33.7781 63.596L37.6294 56.2427L33.4793 48.9531L30.4234 55.8572ZM26.8497 47.9492C27.0768 50.0301 27.9586 58.908 27.025 63.1982L30.2774 55.8572L26.8497 47.9492ZM44.955 56.5012L47.5699 62.5799C46.7731 58.2505 48.4809 48.7569 48.6961 47.5975L48.1649 47.7057L44.955 56.5012Z" fill="black"/>
<path opacity="0.1" d="M30.5827 64.1953L27.2878 55.7922L27.4113 55.7422L30.5894 63.8449L33.7767 56.4389L29.5269 48.4945L29.6438 48.4296L33.8391 56.2766L37.0264 48.8841H37.065L46.5114 47.975L37.7555 63.8896L33.8551 56.5837L30.5827 64.1953ZM33.9228 56.4322L37.7569 63.6095L46.2697 48.1346L37.1154 49.0154L33.9228 56.4322Z" fill="black"/>
<path opacity="0.1" d="M44.6719 63.7786L44.6028 63.6447L36.7673 48.2212L36.8855 48.1589L44.6533 63.4485L47.5737 55.7421L47.6972 55.7909L44.6719 63.7786Z" fill="black"/>
<path d="M37.4913 45.4842C31.2574 45.4842 26.2029 46.3325 26.2029 47.3783C26.2029 48.4241 31.2574 49.2724 37.4913 49.2724C43.7252 49.2724 48.7797 48.4241 48.7797 47.3783C48.7797 46.3325 43.7252 45.4842 37.4913 45.4842ZM37.4913 48.4606C31.7701 48.4606 27.1325 47.9194 27.1325 47.243C27.1325 46.5665 31.7701 46.0253 37.4913 46.0253C43.2126 46.0253 47.8501 46.5665 47.8501 47.243C47.8501 47.9194 43.2126 48.4606 37.4913 48.4606Z" fill="#5F546F"/>
<path opacity="0.2" d="M37.4913 45.4842C31.2574 45.4842 26.2029 46.3325 26.2029 47.3783C26.2029 48.4241 31.2574 49.2724 37.4913 49.2724C43.7252 49.2724 48.7797 48.4241 48.7797 47.3783C48.7797 46.3325 43.7252 45.4842 37.4913 45.4842ZM37.4913 48.4606C31.7701 48.4606 27.1325 47.9194 27.1325 47.243C27.1325 46.5665 31.7701 46.0253 37.4913 46.0253C43.2126 46.0253 47.8501 46.5665 47.8501 47.243C47.8501 47.9194 43.2126 48.4606 37.4913 48.4606Z" fill="black"/>
<path d="M37.4913 45.0783C31.2574 45.0783 26.2029 45.9266 26.2029 46.9724C26.2029 48.0182 31.2574 48.8665 37.4913 48.8665C43.7252 48.8665 48.7797 48.0182 48.7797 46.9724C48.7797 45.9266 43.7252 45.0783 37.4913 45.0783ZM37.4913 48.0548C31.7701 48.0548 27.1325 47.5136 27.1325 46.8371C27.1325 46.1607 31.7701 45.6195 37.4913 45.6195C43.2126 45.6195 47.8501 46.1607 47.8501 46.8371C47.8501 47.5136 43.2126 48.0548 37.4913 48.0548Z" fill="#5F546F"/>
<path opacity="0.1" d="M78.7499 100.056C75.1522 101.086 71.188 100.033 67.6447 101.243C67.3327 101.333 67.0412 101.484 66.7868 101.689C65.9395 102.443 66.2742 103.914 67.0312 104.76C68.241 106.113 70.1428 106.536 71.929 106.717C80.6543 107.6 89.3809 104.386 98.1169 105.062C99.4157 105.164 100.93 105.273 101.801 104.287C102.444 103.56 102.487 102.44 102.17 101.517C101.587 99.8236 99.9761 98.6668 98.2802 98.1811C96.5843 97.6954 94.7874 97.7752 93.0264 97.8551C90.636 97.966 88.2255 97.9349 85.8417 98.0959C83.2932 98.2745 81.1643 99.3703 78.7499 100.056Z" fill="#F92626"/>
<path d="M99.5777 79.8975C98.6481 79.7622 96.9296 78.2739 96.9296 78.2739C96.805 78.0842 96.6347 77.9302 96.435 77.8267C96.2352 77.7231 96.0127 77.6736 95.7888 77.6827L94.0823 75.238C93.4207 74.0799 92.636 72.9996 91.7422 72.0166C91.5962 71.8516 91.4452 71.6915 91.2894 71.5363C90.8291 71.0701 90.3345 70.6404 89.8099 70.251C89.4648 69.9889 89.139 69.7013 88.8351 69.3906C88.5542 69.1056 88.2882 68.8057 88.0383 68.4922L86.851 66.7983L86.7714 66.6833C86.8017 66.5179 86.8097 66.349 86.7953 66.1814C86.7953 66.1422 86.7873 66.1029 86.782 66.0637L81.8815 60.1946L80.4206 57.1587C80.4033 57.1735 80.3449 57.2236 80.2533 57.294L80.2267 57.2168V57.1817V56.926C80.2193 54.8245 80.7313 52.755 81.7155 50.9081C82.046 50.2881 82.219 49.5937 82.2188 48.8882C82.2188 48.8313 82.2188 48.7745 82.2188 48.7177L82.1936 48.6893C82.1471 48.6365 82.0408 48.5147 81.904 48.3348C81.9213 48.2996 81.9399 48.2631 81.9572 48.2293C82.5654 47.0901 83.4114 46.8953 83.4114 46.8953C86.2587 46.4894 88.3119 44.5344 88.3119 44.5344C90.4368 43.3168 90.0384 42.2344 90.0384 42.2344L88.118 37.5127L86.9228 35.0165L86.5921 33.8692C86.4837 33.1061 86.3308 32.3502 86.1339 31.6057C85.851 30.5072 84.4419 30.1946 83.762 31.0943C83.746 31.116 83.7288 31.139 83.7128 31.1633C83.4118 31.6066 83.2839 32.1482 83.3542 32.6825C83.4244 33.2167 83.6877 33.705 84.0927 34.0518C84.7567 34.6282 85.3344 35.2194 85.3344 35.2194C86.5296 35.5563 87.3265 41.8299 87.3265 41.8299L86.5296 42.3711C85.9186 42.4033 85.3207 42.5643 84.7737 42.8437C84.2267 43.1231 83.7425 43.515 83.3516 43.9946H80.8522C80.8522 43.9838 80.8589 43.9729 80.8629 43.9608L80.4485 43.8661L79.2533 43.5955L78.811 43.494L78.8044 43.5224L78.6795 43.494V43.5116C78.5117 43.2406 78.3609 42.9591 78.228 42.6687C78.2637 42.6742 78.2999 42.6742 78.3356 42.6687C78.3449 42.6484 78.3528 42.6281 78.3595 42.6078H78.402C78.5866 42.2019 78.4272 41.6946 78.6052 41.2806C78.7013 41.1059 78.8077 40.9374 78.9239 40.7759C79.1895 40.3092 79.1576 39.7247 79.0793 39.1889C78.9943 38.6126 78.8641 38.0241 78.5388 37.5438C78.2134 37.0635 77.6516 36.7117 77.0779 36.7875C76.6264 36.8484 76.2306 37.1636 75.7764 37.1934C75.455 37.2123 75.1469 37.0838 74.8468 36.9837C74.5181 36.8758 74.1809 36.7975 73.8388 36.7496C73.6117 36.7171 73.3448 36.7131 73.192 36.8849L73.1787 36.9025C73.1596 36.9175 73.1418 36.9342 73.1256 36.9525C73.0657 37.0288 73.0206 37.1161 72.9928 37.2096L72.6993 38.0335C72.6842 38.0615 72.6763 38.0929 72.6763 38.1249C72.6763 38.1568 72.6842 38.1882 72.6993 38.2162C72.7259 38.25 72.7724 38.2595 72.8082 38.2825C73.0406 38.4354 72.7285 38.8128 72.9211 38.9982C73.0367 39.1091 73.2837 39.1213 73.528 39.1199C73.3057 39.4769 73.1711 39.8831 73.1356 40.3042C73.1002 40.7254 73.1649 41.149 73.3242 41.5393C73.4836 41.9296 73.7329 42.275 74.0511 42.5462C74.3693 42.8175 74.747 43.0066 75.1522 43.0976C75.1522 43.1422 75.1522 43.1869 75.1522 43.2329C75.1586 43.5897 75.131 43.9463 75.0699 44.2976L74.876 44.3152C74.5533 44.3328 73.9012 44.3585 73.3315 44.3315C73.1407 44.3238 72.9505 44.3052 72.7617 44.276C72.7617 44.276 72.7392 44.5222 72.6953 44.8997L72.5625 44.9376C71.324 45.3001 70.2484 46.0915 69.5213 47.1753L66.5412 48.9342C66.5412 48.9342 65.2131 48.5973 61.3764 51.9701L58.5954 53.4584C58.5954 53.4584 54.347 54.7328 55.1412 56.0127C55.9353 57.2926 59.9089 54.4623 59.9089 54.4623L61.5025 53.7208L66.3366 51.5561C66.3366 51.5561 67.9303 50.4738 69.1176 50.0679C70.3048 49.662 71.5014 48.4444 71.5014 48.4444L71.8002 48.4282L71.933 48.42C71.9132 48.4564 71.8915 48.4916 71.868 48.5256C71.856 48.5445 71.8427 48.5621 71.8295 48.5783V59.4384L71.8082 59.7401H71.8175L71.4988 64.1574C71.4988 64.1574 71.5652 66.1868 71.2996 67.3273C71.0339 68.4679 71.4988 73.1287 71.4988 73.1287C71.4988 73.1287 71.6727 73.1287 71.9556 73.1084L71.9476 73.2437L71.8308 75.1527C71.8308 75.1527 71.6077 75.8887 72.8932 76.2716C73.1876 76.3585 73.4678 76.4894 73.7246 76.6599L75.2067 77.6489L76.73 78.5959L77.0381 79.2548L77.0527 79.2873L76.7286 79.0857C76.7286 79.0857 76.463 79.7622 77.3249 80.6375C77.6477 80.9317 77.8995 81.2978 78.0607 81.7072C78.2219 82.1167 78.2883 82.5586 78.2546 82.9984C78.2546 82.9984 78.3874 84.6219 79.1842 84.216C79.1842 84.216 80.4419 83.9455 80.3794 81.7199C80.3794 81.7199 79.8774 79.8664 80.4618 79.083C80.4777 79.0614 80.4945 79.0406 80.5122 79.0208C81.1763 78.2794 80.313 77.1267 80.313 77.1267C80.313 77.1267 78.7791 76.4962 78.6928 77.5434L78.6291 77.515C78.3528 77.3797 77.8575 77.0509 77.3329 76.25C77.3329 76.25 76.4723 74.0244 75.1482 73.8214L75.37 72.5402L75.3953 72.3927C75.8508 72.1736 76.22 71.8908 76.4059 71.5269L76.4139 71.5106V71.5039V71.4944V71.4849V71.4754L76.4205 71.4619V71.4511L76.4272 71.4362L76.4351 71.42V71.4064L76.4444 71.3875L76.4697 71.374L76.479 71.3537L76.4869 71.3361L76.4976 71.3131L76.5068 71.2941L76.5175 71.2711L76.5294 71.2468L76.5387 71.2278L76.552 71.1994L76.5613 71.1805L76.6184 71.0547L76.6264 71.0384L76.6423 71.0033L76.6543 70.9776L76.6715 70.9383L76.6821 70.9153L76.7021 70.8693L76.71 70.8504L76.7313 70.803L76.7419 70.78L76.7632 70.7313L76.7725 70.7097L76.795 70.6583L76.8043 70.638L76.8282 70.5839L76.8362 70.5636L76.8601 70.5067L76.8681 70.4878L76.8946 70.4269V70.4161C77.3183 69.4122 77.8508 67.9686 77.8243 67.1136C77.8277 67.0455 77.8277 66.9773 77.8243 66.9093H77.8083V66.8958C77.8083 66.8673 77.7977 66.8403 77.7897 66.8146L81.3649 67.6263L83.4897 69.9872H83.499H83.507H83.5163H83.5269H83.5375L83.5508 69.9804H83.5628L83.58 69.9723L83.5933 69.9656L83.6119 69.9561L83.6279 69.948L83.6504 69.9358L83.665 69.9277L83.6903 69.9142L83.7062 69.9047L83.7328 69.8911L83.7514 69.8803L83.7806 69.8641L83.7992 69.8546L83.8297 69.837L83.851 69.8249L83.8842 69.8059L83.9067 69.7504L83.9439 69.7288L83.9639 69.718L84.0024 69.6963L84.0249 69.6828L84.0648 69.6598L84.086 69.6463L84.1285 69.6206L84.1511 69.607L84.1949 69.58L84.2162 69.5664L84.2627 69.538H84.2706L84.345 69.626L85.2746 70.7246C86.2043 71.1304 88.3212 73.1531 88.3212 73.1531C88.5655 73.7497 89.6001 74.6021 90.1287 75.0107C90.2798 75.1245 90.4402 75.225 90.6081 75.311C90.8976 75.4639 91.3053 75.8278 91.6785 76.1958C92.1655 76.6861 92.688 77.1384 93.2416 77.5488C93.7536 77.9465 94.209 78.4145 94.5949 78.9396L94.6401 78.9991C94.324 80.0815 96.1328 81.1814 96.1328 81.1814C96.7968 81.0461 98.8473 82.9402 98.8473 82.9402C98.8473 82.9402 100.768 84.492 101.562 82.8049C102.356 81.1178 99.5777 79.8975 99.5777 79.8975ZM96.069 78.09L95.8034 77.7071C95.8755 77.7417 95.9376 77.7948 95.9835 77.8612C96.0293 77.9276 96.0574 78.0051 96.065 78.0859L96.069 78.09Z" fill="url(#paint12_linear)"/>
<path d="M79.5547 44.9714C79.5547 44.9714 72.8547 48.9477 74.2863 46.6937C74.9055 45.7444 75.2295 44.627 75.2159 43.4873C75.2157 43.1152 75.1666 42.7448 75.0699 42.386L77.8667 41.0601C77.8183 41.4504 77.8527 41.8467 77.9677 42.2223C78.3594 43.632 79.5547 44.9714 79.5547 44.9714Z" fill="#DB8B8B"/>
<path opacity="0.1" d="M77.9637 42.2236C77.6983 42.7067 77.2878 43.0903 76.7924 43.318C76.2971 43.5457 75.7432 43.6055 75.212 43.4886C75.2117 43.1165 75.1626 42.7462 75.0659 42.3873L77.8628 41.0615C77.8144 41.4517 77.8488 41.8481 77.9637 42.2236Z" fill="black"/>
<path d="M75.7497 43.4142C77.1506 43.4142 78.2863 42.2572 78.2863 40.8301C78.2863 39.4029 77.1506 38.246 75.7497 38.246C74.3488 38.246 73.2131 39.4029 73.2131 40.8301C73.2131 42.2572 74.3488 43.4142 75.7497 43.4142Z" fill="#DB8B8B"/>
<path opacity="0.1" d="M74.1281 39.4555C74.3733 39.5066 74.5897 39.652 74.7324 39.8614C74.8997 40.132 74.8957 40.5027 75.1308 40.7137C75.3082 40.8473 75.5299 40.9046 75.7484 40.8734C75.9642 40.8414 76.1829 40.8337 76.4004 40.8504C76.7524 40.9085 77.0406 41.1737 77.2358 41.4768C77.4133 41.791 77.5712 42.1164 77.7086 42.4509C77.7647 42.5836 77.8449 42.7043 77.945 42.8067C77.9955 42.8575 78.0571 42.8955 78.1246 42.9176C78.1922 42.9396 78.264 42.9452 78.3341 42.9339C78.516 42.528 78.3593 42.0355 78.5333 41.631C78.6274 41.4597 78.7316 41.2943 78.8454 41.1358C79.111 40.6772 79.0751 40.1036 78.9968 39.5773C78.9131 39.0104 78.7856 38.4327 78.4656 37.9619C78.1455 37.491 77.5944 37.1501 77.0366 37.2191C76.593 37.2786 76.2039 37.5884 75.7577 37.6155C75.4429 37.6344 75.1388 37.5086 74.8386 37.4099C74.5161 37.3039 74.185 37.227 73.8492 37.1799C73.6261 37.1487 73.3645 37.1433 73.2144 37.3152C73.1548 37.3896 73.1097 37.475 73.0816 37.5668L72.7934 38.3786C72.7786 38.4061 72.7708 38.4371 72.7708 38.4685C72.7708 38.5 72.7786 38.5309 72.7934 38.5585C72.82 38.591 72.8651 38.6004 72.8997 38.6248C73.1281 38.775 72.8213 39.1457 73.0099 39.3283C73.1985 39.511 73.8638 39.3919 74.1281 39.4555Z" fill="black"/>
<path d="M74.1933 39.3892C74.4385 39.4404 74.6549 39.5857 74.7976 39.7951C74.9649 40.0657 74.9609 40.4364 75.196 40.6474C75.3734 40.781 75.5951 40.8383 75.8135 40.8071C76.0294 40.7751 76.2481 40.7674 76.4656 40.7841C76.8176 40.8423 77.1058 41.1074 77.301 41.4105C77.4785 41.7248 77.6364 42.0501 77.7738 42.3846C77.8299 42.5173 77.9101 42.638 78.0102 42.7404C78.0607 42.7912 78.1222 42.8292 78.1898 42.8513C78.2574 42.8734 78.3292 42.879 78.3993 42.8676C78.5812 42.4617 78.4245 41.9693 78.5985 41.5647C78.6926 41.3934 78.7968 41.228 78.9106 41.0696C79.1762 40.6109 79.1403 40.0373 79.062 39.511C78.9783 38.9441 78.8508 38.3664 78.5308 37.8956C78.2107 37.4248 77.6596 37.0838 77.1018 37.1528C76.6582 37.2123 76.2691 37.5222 75.8228 37.5492C75.5081 37.5682 75.204 37.4423 74.9038 37.3436C74.5812 37.2377 74.2502 37.1607 73.9144 37.1136C73.6913 37.0825 73.4297 37.077 73.2796 37.2489C73.22 37.3233 73.1749 37.4088 73.1468 37.5005L72.8586 38.3123C72.8437 38.3398 72.8359 38.3708 72.8359 38.4022C72.8359 38.4337 72.8437 38.4647 72.8586 38.4922C72.8852 38.5247 72.9303 38.5342 72.9649 38.5585C73.1933 38.7087 72.8865 39.0794 73.0751 39.262C73.2637 39.4447 73.929 39.3256 74.1933 39.3892Z" fill="#472727"/>
<path d="M88.1405 44.7725C88.1405 44.7725 86.1245 46.6937 83.3277 47.0915C83.3277 47.0915 82.4963 47.2836 81.8987 48.4025C81.6809 48.823 81.5265 49.2745 81.4405 49.7419L78.4391 44.5615L78.2532 44.2408H83.2613C83.6458 43.7706 84.1217 43.3866 84.659 43.113C85.1964 42.8394 85.7835 42.6822 86.3835 42.6511L87.1644 42.1208C87.1644 42.1208 86.3835 35.9582 85.2135 35.6267C85.2135 35.6267 84.6424 35.0449 83.993 34.4794C83.5943 34.1385 83.335 33.6581 83.266 33.1325C83.197 32.6069 83.3232 32.074 83.6198 31.6382C83.6358 31.6152 83.6517 31.5922 83.669 31.5706C84.333 30.6871 85.7208 30.9942 85.9997 32.0739C86.1934 32.8073 86.3437 33.5518 86.4499 34.3035L86.7753 35.4305L87.9466 37.882L89.8325 42.5199C89.8325 42.5199 90.2216 43.5806 88.1405 44.7725Z" fill="#DB8B8B"/>
<path d="M73.1798 45.0377L72.7894 48.5554L71.9115 48.6054L71.618 48.6217C71.618 48.6217 70.4467 49.8149 69.2767 50.2114C68.1067 50.6078 66.5449 51.6698 66.5449 51.6698L61.7971 53.7858L60.2366 54.5151C60.2366 54.5151 56.3335 57.3035 55.5526 56.0385C54.7717 54.7735 58.9391 53.5152 58.9391 53.5152L61.6709 52.0568C65.4439 48.7434 66.7441 49.0803 66.7441 49.0803L69.6658 47.358C70.3798 46.2933 71.4361 45.5158 72.6526 45.1595C72.8252 45.1058 73.0014 45.0651 73.1798 45.0377Z" fill="#DB8B8B"/>
<path opacity="0.1" d="M81.8985 48.4025C81.6808 48.823 81.5264 49.2746 81.4404 49.7419L78.439 44.5615C78.5105 44.4604 78.5732 44.3531 78.6262 44.2409C78.703 44.0821 78.7636 43.9157 78.8068 43.7443L79.2411 43.8444L80.4164 44.115L80.8241 44.2084C80.8241 44.2192 80.8162 44.23 80.8135 44.2409C80.2664 45.8779 81.2983 47.5921 81.8985 48.4025Z" fill="black"/>
<path opacity="0.1" d="M73.1799 45.0377L72.7895 48.5554L71.9116 48.6054C72.2848 47.9289 72.5385 46.1377 72.654 45.1649C72.826 45.1094 73.0018 45.0669 73.1799 45.0377Z" fill="black"/>
<path d="M81.6624 50.9676C80.6866 52.799 80.1839 54.8531 80.2015 56.9368V57.1965V57.2303C80.2015 57.2303 80.9174 59.2178 80.2015 59.2178C79.4857 59.2178 79.5508 60.2122 78.6411 60.4111C77.7314 60.61 74.5427 62.0008 73.5679 61.4055C72.5931 60.8102 71.9424 59.5506 71.9424 59.5506V48.7488C71.9557 48.7326 71.9689 48.715 71.9809 48.696C72.5427 47.8843 72.8534 44.5019 72.8534 44.5019C73.0391 44.531 73.2262 44.5495 73.4139 44.5574C73.973 44.5845 74.6091 44.5574 74.9305 44.5412L75.1297 44.529C75.6915 44.9768 76.4578 45.0417 76.8376 45.0417C76.9709 45.0423 77.104 45.0522 77.236 45.0715C78.3343 45.2285 78.669 43.7416 78.669 43.7416L79.1032 43.8417L80.2786 44.1123L80.6863 44.2056C79.9545 46.3176 81.8815 48.5756 82.1246 48.8489L82.1498 48.8773C82.1705 49.6056 82.0024 50.3266 81.6624 50.9676Z" fill="#F92626"/>
<path opacity="0.3" d="M73.415 44.5628C73.415 45.4409 73.2091 48.3511 71.9448 48.7718V48.7488C71.9581 48.7326 71.9714 48.715 71.9833 48.6961C72.5451 47.8843 72.8559 44.502 72.8559 44.502C73.041 44.5328 73.2277 44.5531 73.415 44.5628Z" fill="white"/>
<path opacity="0.3" d="M82.1309 48.853C79.751 48.7285 80.0326 45.5573 80.2849 44.1177L80.6926 44.2111C79.9608 46.3217 81.8865 48.5797 82.1309 48.853Z" fill="white"/>
<g opacity="0.1">
<path opacity="0.1" d="M82.1561 48.9477C82.1554 48.9408 82.1526 48.9344 82.1481 48.9293C82.1435 48.9242 82.1375 48.9207 82.1309 48.9193C81.5997 48.784 82.1893 48.9802 81.5997 48.784C81.5771 48.7759 81.6316 48.6852 81.6316 48.6852C81.6495 49.4127 81.4791 50.1323 81.1375 50.7714C80.1617 52.6028 79.659 54.6569 79.6767 56.7406V57.0004V57.0328C79.6767 57.0328 80.3925 59.0203 79.6767 59.0203C78.9608 59.0203 79.0259 60.0147 78.1162 60.2136C77.2822 60.3962 74.5398 61.5773 73.3352 61.3162C73.4096 61.3717 73.4853 61.4245 73.5636 61.4718C74.5397 62.0685 77.7271 60.6763 78.6368 60.4774C79.5465 60.2785 79.4828 59.2841 80.1973 59.2841C80.9118 59.2841 80.1973 57.2967 80.1973 57.2967V57.2628V57.0031C80.1796 54.9194 80.6823 52.8653 81.6581 51.0339C82.0011 50.3951 82.1729 49.6756 82.1561 48.9477Z" fill="black"/>
<path opacity="0.1" d="M75.2874 44.6697C75.2569 44.6481 75.225 44.6251 75.1958 44.6021H75.1267C75.1798 44.6291 75.2343 44.6494 75.2874 44.6697Z" fill="black"/>
</g>
<path d="M95.8152 77.8384L95.0357 79.6269C94.8131 79.2541 94.5692 78.895 94.3052 78.5514C93.9265 78.036 93.4796 77.5766 92.9772 77.1862C92.4334 76.7833 91.9202 76.3391 91.4419 75.8577C91.0754 75.4964 90.6743 75.1379 90.3901 74.9877C90.225 74.9033 90.0673 74.8046 89.9187 74.6928C89.4007 74.2869 88.3835 73.4548 88.1431 72.869C88.1431 72.869 86.062 70.8815 85.151 70.4838L84.2426 69.4014L83.1987 68.1608L85.8655 65.4441L86.6503 66.563L87.8177 68.2271C88.3457 68.8955 88.9498 69.4977 89.6172 70.0211C90.2821 70.5124 90.8961 71.0713 91.4499 71.6893C92.323 72.6565 93.089 73.7186 93.7342 74.8565L95.4115 77.2579L95.4234 77.2769L95.6891 77.6544L95.8152 77.8384Z" fill="#DB8B8B"/>
<path d="M79.2942 78.0372L78.253 80.555L77.4084 79.6269L77.0605 78.8828L76.7577 78.2347L75.2609 77.3066L73.8001 76.3352C73.5478 76.1677 73.2726 76.0391 72.9833 75.9537C71.7204 75.5776 71.9382 74.8551 71.9382 74.8551L72.0537 72.9799L72.1334 71.6743L75.5863 71.2766L75.4137 72.271L75.1959 73.5292C76.4974 73.7281 77.342 75.9145 77.342 75.9145C77.856 76.7005 78.3434 77.0266 78.6156 77.1564C78.6865 77.1929 78.7614 77.2206 78.8387 77.239L79.2942 78.0372Z" fill="#DB8B8B"/>
<path opacity="0.1" d="M95.4247 77.2789L95.3931 77.2607H95.4123L95.4247 77.2789Z" fill="black"/>
<path opacity="0.1" d="M95.8152 77.8383L95.0356 79.6269C94.8131 79.2541 94.5692 78.8949 94.3052 78.5513C94.4247 78.6677 95.0927 79.2873 95.3065 78.7218C95.3885 78.4912 95.4829 78.2653 95.5894 78.0453C95.6554 77.9281 95.689 77.7948 95.6864 77.6597L95.8152 77.8383Z" fill="black"/>
<path opacity="0.1" d="M95.7515 77.7206L95.4859 77.3431L95.474 77.3242L93.7966 74.9227C93.1501 73.7856 92.3827 72.7244 91.5084 71.7582C90.9546 71.1403 90.3406 70.5813 89.6757 70.09C89.0083 69.5667 88.4042 68.9645 87.8762 68.2961L86.7128 66.6387L85.9279 65.5198L85.8137 65.6362L86.5163 66.6387L87.6836 68.3028C88.2124 68.9694 88.8169 69.5698 89.4845 70.0914C90.1493 70.5827 90.7634 71.1416 91.3172 71.7596C92.19 72.7255 92.956 73.7863 93.6014 74.9227L95.2814 77.3269L95.2934 77.3458L95.559 77.7233L95.6918 77.9073L94.9932 79.5092C95.0663 79.6269 95.1074 79.6959 95.1074 79.6959L95.8883 77.9073L95.7515 77.7206Z" fill="black"/>
<path opacity="0.1" d="M79.2943 78.0372L78.2531 80.555L77.4085 79.6269L77.0605 78.8828L78.0592 79.5593C79.0407 78.9342 78.6622 77.3364 78.617 77.1578C78.6879 77.1943 78.7628 77.222 78.8401 77.2403L79.2943 78.0372Z" fill="black"/>
<path d="M78.6768 77.2092C78.6768 77.2092 79.1642 78.968 78.1243 79.6283L76.7577 78.7002C76.7577 78.7002 76.4921 79.3631 77.3434 80.2249C77.6601 80.514 77.907 80.8737 78.065 81.2759C78.223 81.6781 78.2878 82.112 78.2544 82.5439C78.2544 82.5439 78.3872 84.1336 79.1655 83.7371C79.1655 83.7371 80.4019 83.4666 80.3368 81.2856C80.3368 81.2856 79.8441 79.4659 80.4178 78.6961C80.4338 78.6754 80.4502 78.6551 80.467 78.6352C81.1177 77.906 80.2718 76.7803 80.2718 76.7803C80.2718 76.7803 78.7418 76.1499 78.6768 77.2092Z" fill="#535461"/>
<path opacity="0.1" d="M80.2054 59.2192C79.4896 59.2192 79.5547 60.2136 78.645 60.4125C77.7353 60.6114 74.5466 62.0022 73.5718 61.4069C72.597 60.8116 71.9463 59.5521 71.9463 59.5521V59.4168C73.5718 60.2786 75.5891 59.4168 75.5891 59.4168C77.0261 59.6982 79.4976 57.7784 80.2067 57.1953V57.2291C80.2067 57.2291 80.9199 59.2192 80.2054 59.2192Z" fill="black"/>
<path opacity="0.1" d="M72.1388 71.6757L75.5917 71.278L75.4191 72.2724C74.35 72.7784 72.8108 72.9339 72.0645 72.9813L72.1388 71.6757Z" fill="black"/>
<path opacity="0.1" d="M86.6476 66.5657C86.4843 67.7833 85.1483 68.8291 84.2399 69.4068L83.196 68.1662L85.8628 65.4495L86.6476 66.5657Z" fill="black"/>
<path d="M75.5863 59.5493C75.5863 59.5493 73.5703 60.4111 71.9435 59.5493L71.6181 64.0559C71.6181 64.0559 71.6832 66.0434 71.4229 67.1677C71.1626 68.292 71.6181 72.8663 71.6181 72.8663C71.6181 72.8663 75.6514 72.8 76.4309 71.2766C76.4309 71.2766 78.1216 67.8306 77.7975 66.6387L81.3102 67.4342L83.3926 69.7505C83.3926 69.7505 86.9704 68.0282 86.645 65.9068L81.8308 60.1446L80.4005 57.1681C80.4005 57.1681 77.2782 59.8808 75.5863 59.5493Z" fill="#F92626"/>
<path opacity="0.1" d="M83.3926 69.7505L81.3116 67.4315L77.7975 66.6387C77.8055 66.6685 77.8121 66.6996 77.8188 66.732C77.8296 66.7955 77.8358 66.8597 77.8374 66.9242C77.8918 68.3028 76.4323 71.2779 76.4323 71.2779C75.6514 72.8027 71.6194 72.8676 71.6194 72.8676C71.6194 72.8676 71.1573 68.2974 71.4229 67.1704C71.6885 66.0434 71.6181 64.0586 71.6181 64.0586L71.9315 59.7198L71.9435 59.5534C72.3976 59.7863 72.8962 59.9156 73.4043 59.9322C74.1241 59.9534 74.8413 59.8344 75.5173 59.5818L75.5863 59.5534C75.6244 59.5606 75.6634 59.5664 75.7032 59.5709C77.1003 59.7279 79.3407 58.0313 80.1203 57.3995C80.2969 57.2561 80.3992 57.1681 80.3992 57.1681L81.8308 60.1446L86.6437 65.9095C86.6541 65.9757 86.6603 66.0426 86.6623 66.1097C86.746 68.1391 83.3926 69.7505 83.3926 69.7505Z" fill="black"/>
<path opacity="0.3" d="M79.1097 43.8458C77.6608 46.5124 75.524 45.0364 74.9316 44.5466L75.1308 44.5344C75.6926 44.9823 76.4589 45.0472 76.8387 45.0472C76.9721 45.0477 77.1052 45.0577 77.2371 45.077C78.3355 45.2339 78.6701 43.747 78.6701 43.747L79.1097 43.8458Z" fill="white"/>
<path d="M95.4606 77.3269C95.6834 77.3142 95.9056 77.3609 96.1052 77.4624C96.3049 77.564 96.475 77.7169 96.5988 77.906C96.5988 77.906 98.2881 79.3563 99.1978 79.4916C99.1978 79.4916 101.93 80.6849 101.149 82.3409C100.368 83.9969 98.482 82.4762 98.482 82.4762C98.482 82.4762 96.466 80.6213 95.8152 80.7539C95.8152 80.7539 94.0263 79.6607 94.3544 78.6C94.3544 78.6 95.1379 79.4118 95.3743 78.7881C95.4558 78.5574 95.5498 78.3316 95.6559 78.1116C95.782 77.8573 95.8471 77.5258 95.4606 77.3269Z" fill="#535461"/>
<path opacity="0.1" d="M75.1587 59.5655C74.4787 59.7671 73.1109 60.0364 71.9448 59.4181L71.9236 59.7144C73.338 60.238 74.9024 59.667 75.1587 59.5655Z" fill="black"/>
<path opacity="0.1" d="M76.6371 59.3328C76.2983 59.4446 75.9389 59.4756 75.5866 59.4235C75.5866 59.4235 75.4431 59.4844 75.2041 59.5588C75.6198 59.6305 76.1191 59.5263 76.6371 59.3328Z" fill="black"/>
<path opacity="0.1" d="M86.6637 66.1111C86.6013 68.0769 83.3927 69.6219 83.3927 69.6219L83.3475 69.5719C84.236 69.0754 86.5176 67.6237 86.2546 65.9108L81.4404 60.1446L80.1204 57.3941C80.297 57.2507 80.3993 57.1628 80.3993 57.1628L81.8309 60.1392L86.6437 65.9041C86.6548 65.9726 86.6615 66.0417 86.6637 66.1111Z" fill="black"/>
<path opacity="0.1" d="M77.4083 66.6387C77.7337 67.832 76.0417 71.2766 76.0417 71.2766C75.8106 71.7271 75.2967 72.0504 74.6858 72.2818C75.4614 72.0464 76.1533 71.6879 76.4322 71.144C76.4322 71.144 77.9329 68.0863 77.8346 66.7347L77.4083 66.6387Z" fill="black"/>
<path opacity="0.3" d="M76.3023 49.4442C75.3859 49.4442 74.6436 50.5266 74.6436 51.8633C74.6436 53.2 75.3859 54.2824 76.3023 54.2824C77.2186 54.2824 77.961 53.2 77.961 51.8633C77.961 50.5266 77.2186 49.4442 76.3023 49.4442ZM76.3023 53.288C75.7631 53.288 75.3248 52.6507 75.3248 51.8633C75.3248 51.0759 75.7618 50.4387 76.3023 50.4387C76.8428 50.4387 77.2797 51.0759 77.2797 51.8633C77.2797 52.6507 76.8415 53.288 76.3023 53.288Z" fill="white"/>
<path d="M87.1736 32.3728C87.1736 32.4513 87.1736 32.5288 87.1736 32.6055C87.1736 32.6475 87.1736 32.6894 87.1643 32.73C87.1086 33.425 86.8801 34.094 86.5003 34.6742C86.4751 34.7134 86.4485 34.7513 86.422 34.7892C86.0598 35.3065 85.5817 35.7284 85.0273 36.0197C84.473 36.311 83.8584 36.4634 83.2346 36.4641C83.1457 36.4641 83.0567 36.4641 82.969 36.4546C82.8814 36.4451 82.8057 36.4411 82.7247 36.4303C82.1616 36.3525 81.6218 36.1515 81.1423 35.8412C80.6627 35.5308 80.2547 35.1184 79.9464 34.6322C79.9251 34.6011 79.9052 34.5673 79.8866 34.5362V34.5294C79.4972 33.8801 79.2917 33.1337 79.293 32.3728C79.2927 32.17 79.3069 31.9674 79.3355 31.7667L79.3567 31.6314C79.4644 31.0124 79.7107 30.427 80.0765 29.9206C80.4422 29.4143 80.9176 29.0006 81.4657 28.7118L81.6091 28.6401C82.0752 28.4209 82.5793 28.2977 83.0923 28.2775C83.6053 28.2573 84.1172 28.3405 84.5985 28.5223C84.7239 28.5698 84.8467 28.624 84.9664 28.6847C85.8486 29.1323 86.5376 29.8959 86.9014 30.8291C86.9147 30.8602 86.9253 30.89 86.9359 30.9211C87.0996 31.3867 87.1801 31.8783 87.1736 32.3728Z" fill="#F88787"/>
<path opacity="0.5" d="M86.9201 30.9212C86.6675 30.9975 86.4054 31.0363 86.1419 31.0362H86.0967H85.9931C85.9294 31.0362 85.867 31.0281 85.8072 31.0199C85.2907 30.957 84.7958 30.7717 84.3623 30.4788C83.2029 29.2747 82.0674 28.8634 81.4539 28.72L81.5973 28.6483C82.2002 28.8038 83.179 29.1894 84.1976 30.1635C84.4602 30.4167 84.77 30.6136 85.1086 30.7426C85.3414 30.8302 85.5834 30.8897 85.8298 30.9198C85.8829 30.9198 85.9347 30.9307 85.9865 30.9347H86.0914C86.3606 30.9422 86.6294 30.9075 86.8882 30.8319C86.8975 30.8657 86.9095 30.8955 86.9201 30.9212Z" fill="white"/>
<path opacity="0.5" d="M87.1671 32.6056C87.1671 32.6475 87.1671 32.6894 87.1578 32.73C86.8181 32.5087 86.4551 32.3272 86.0754 32.1889L85.9758 32.1523C85.0708 31.8426 84.1358 31.6321 83.1869 31.5246C80.9558 31.2351 79.8429 31.5056 79.313 31.7627L79.3342 31.6274C79.908 31.3704 81.0381 31.1363 83.2002 31.4164C84.1485 31.5242 85.0831 31.7323 85.9891 32.0373L86.0887 32.0739C86.466 32.2107 86.8276 32.389 87.1671 32.6056Z" fill="white"/>
<path opacity="0.5" d="M86.0885 32.0834C86.0885 32.1199 86.0805 32.1564 86.0766 32.1943C86.0535 32.3792 86.0208 32.5727 85.9783 32.7747C85.9455 32.9272 85.9092 33.0737 85.8694 33.2144C85.8588 33.251 85.8481 33.2875 85.8375 33.3227C85.3328 34.9692 84.3063 35.804 83.4948 36.2207C83.3225 36.3099 83.1451 36.3885 82.9636 36.4561L82.7192 36.4317C82.9742 36.3509 83.222 36.2486 83.4603 36.1259C84.2571 35.7201 85.2651 34.8907 85.7565 33.2604C85.7671 33.228 85.7764 33.1941 85.7857 33.1603C85.8229 33.0295 85.8565 32.8942 85.8866 32.7544C85.93 32.5515 85.9632 32.3531 85.9862 32.1591C85.9862 32.1226 85.9942 32.0847 85.9982 32.0482C86.0321 31.7127 86.0321 31.3745 85.9982 31.0389C85.9982 31.0037 85.9916 30.9686 85.9862 30.9347C85.9053 30.206 85.595 29.5235 85.1018 28.9892C84.9407 28.8173 84.7627 28.6627 84.5705 28.5279C84.6959 28.5753 84.8187 28.6295 84.9384 28.6902C85.0163 28.7597 85.0934 28.8354 85.1695 28.9175C85.6771 29.4737 85.9944 30.1823 86.0739 30.9374C86.0739 30.9713 86.0819 31.0064 86.0858 31.0403C86.1222 31.3869 86.1231 31.7365 86.0885 32.0834Z" fill="white"/>
<path opacity="0.5" d="M86.4896 34.6756C86.4644 34.7148 86.4378 34.7527 86.4112 34.7906C86.2997 34.2981 86.1209 33.824 85.88 33.3822C85.8673 33.3602 85.8517 33.3401 85.8335 33.3226C85.807 33.298 85.777 33.2775 85.7446 33.2617C85.2333 33.0033 83.706 33.4363 82.5705 34.0613C81.6966 34.543 80.5532 34.6282 79.9277 34.6336L79.8679 34.5376V34.5308C80.4655 34.5308 81.6395 34.4578 82.524 33.9707C83.5865 33.3889 85.1669 32.8883 85.7751 33.1589C85.8073 33.1733 85.838 33.191 85.8667 33.2117C85.9085 33.242 85.9437 33.2807 85.9703 33.3253C86.2004 33.7505 86.375 34.2044 86.4896 34.6756Z" fill="white"/>
<path opacity="0.1" d="M40.4794 101.158H34.636V101.834H40.4794V101.158Z" fill="black"/>
<path opacity="0.3" d="M24.3647 13.356L10.731 27.3548V30.6695L26.2028 12.7512L24.3647 13.356Z" fill="white"/>
<path opacity="0.3" d="M29.07 12.0098L10.731 35.6754V39.1836L33.6451 11.3144L29.07 12.0098Z" fill="white"/>
</g>
<defs>
<linearGradient id="paint0_linear" x1="37.6308" y1="104.118" x2="37.6308" y2="48.696" gradientUnits="userSpaceOnUse">
<stop stop-color="#808080" stop-opacity="0.25"/>
<stop offset="0.54" stop-color="#808080" stop-opacity="0.12"/>
<stop offset="1" stop-color="#808080" stop-opacity="0.1"/>
</linearGradient>
<linearGradient id="paint1_linear" x1="5309.92" y1="3456.34" x2="5309.92" y2="3321.32" gradientUnits="userSpaceOnUse">
<stop stop-color="#808080" stop-opacity="0.25"/>
<stop offset="0.54" stop-color="#808080" stop-opacity="0.12"/>
<stop offset="1" stop-color="#808080" stop-opacity="0.1"/>
</linearGradient>
<linearGradient id="paint2_linear" x1="21736" y1="16767.1" x2="21736" y2="4835.72" gradientUnits="userSpaceOnUse">
<stop stop-color="#808080" stop-opacity="0.25"/>
<stop offset="0.54" stop-color="#808080" stop-opacity="0.12"/>
<stop offset="1" stop-color="#808080" stop-opacity="0.1"/>
</linearGradient>
<linearGradient id="paint3_linear" x1="20363.6" y1="15357.1" x2="20363.6" y2="4885.75" gradientUnits="userSpaceOnUse">
<stop stop-color="#808080" stop-opacity="0.25"/>
<stop offset="0.54" stop-color="#808080" stop-opacity="0.12"/>
<stop offset="1" stop-color="#808080" stop-opacity="0.1"/>
</linearGradient>
<linearGradient id="paint4_linear" x1="4027.94" y1="4156.46" x2="4027.94" y2="3018.54" gradientUnits="userSpaceOnUse">
<stop stop-color="#808080" stop-opacity="0.25"/>
<stop offset="0.54" stop-color="#808080" stop-opacity="0.12"/>
<stop offset="1" stop-color="#808080" stop-opacity="0.1"/>
</linearGradient>
<linearGradient id="paint5_linear" x1="3350.32" y1="3377.21" x2="3350.32" y2="2592.87" gradientUnits="userSpaceOnUse">
<stop stop-color="#808080" stop-opacity="0.25"/>
<stop offset="0.54" stop-color="#808080" stop-opacity="0.12"/>
<stop offset="1" stop-color="#808080" stop-opacity="0.1"/>
</linearGradient>
<linearGradient id="paint6_linear" x1="8625.51" y1="9264.2" x2="8625.51" y2="7017.83" gradientUnits="userSpaceOnUse">
<stop stop-color="#808080" stop-opacity="0.25"/>
<stop offset="0.54" stop-color="#808080" stop-opacity="0.12"/>
<stop offset="1" stop-color="#808080" stop-opacity="0.1"/>
</linearGradient>
<linearGradient id="paint7_linear" x1="7331.33" y1="8785.88" x2="7331.33" y2="6767.38" gradientUnits="userSpaceOnUse">
<stop stop-color="#808080" stop-opacity="0.25"/>
<stop offset="0.54" stop-color="#808080" stop-opacity="0.12"/>
<stop offset="1" stop-color="#808080" stop-opacity="0.1"/>
</linearGradient>
<linearGradient id="paint8_linear" x1="3568.65" y1="7513.99" x2="3568.65" y2="5641.64" gradientUnits="userSpaceOnUse">
<stop stop-color="#808080" stop-opacity="0.25"/>
<stop offset="0.54" stop-color="#808080" stop-opacity="0.12"/>
<stop offset="1" stop-color="#808080" stop-opacity="0.1"/>
</linearGradient>
<linearGradient id="paint9_linear" x1="8710.88" y1="1653.24" x2="8710.88" y2="1543.08" gradientUnits="userSpaceOnUse">
<stop stop-color="#808080" stop-opacity="0.25"/>
<stop offset="0.54" stop-color="#808080" stop-opacity="0.12"/>
<stop offset="1" stop-color="#808080" stop-opacity="0.1"/>
</linearGradient>
<linearGradient id="paint10_linear" x1="8710.88" y1="1653.24" x2="8710.88" y2="1543.08" gradientUnits="userSpaceOnUse">
<stop stop-color="#808080" stop-opacity="0.25"/>
<stop offset="0.54" stop-color="#808080" stop-opacity="0.12"/>
<stop offset="1" stop-color="#808080" stop-opacity="0.1"/>
</linearGradient>
<linearGradient id="paint11_linear" x1="8710.88" y1="1641.05" x2="8710.88" y2="1530.89" gradientUnits="userSpaceOnUse">
<stop stop-color="#808080" stop-opacity="0.25"/>
<stop offset="0.54" stop-color="#808080" stop-opacity="0.12"/>
<stop offset="1" stop-color="#808080" stop-opacity="0.1"/>
</linearGradient>
<linearGradient id="paint12_linear" x1="32034.2" y1="36359.2" x2="32034.2" y2="15044.7" gradientUnits="userSpaceOnUse">
<stop stop-color="#808080" stop-opacity="0.25"/>
<stop offset="0.54" stop-color="#808080" stop-opacity="0.12"/>
<stop offset="1" stop-color="#808080" stop-opacity="0.1"/>
</linearGradient>
<clipPath id="clip0">
<rect width="133.66" height="106.448" fill="white" transform="translate(0.210205 0.425964)"/>
</clipPath>
</defs>
</svg>
