<svg width="169" height="94" viewBox="0 0 169 94" fill="none" xmlns="http://www.w3.org/2000/svg">
<g clip-path="url(#clip0)">
<path opacity="0.1" d="M49.2201 45.9072C45.2356 47.7502 41.5618 50.2818 37.408 51.6998C32.3529 53.4255 26.8944 53.4076 21.5529 53.3685L0 53.2171C4.36525 61.0626 12.0772 66.9691 20.785 69.136C24.2017 69.9875 27.851 70.3212 30.8642 72.1495C34.6194 74.4288 36.8451 78.7138 40.662 80.8839C44.8695 83.2739 50.0987 82.6292 54.7877 83.8144C60.9003 85.3496 66.014 89.9667 72.2487 90.8752C78.2783 91.7527 84.1567 89.0273 90.0009 87.3065C110.875 81.1591 133.427 87.7249 154.974 84.6854C155.802 84.5682 156.684 84.4102 157.282 83.8274C158.052 83.0801 158.115 81.8738 157.962 80.8041C157.194 75.474 152.403 71.5569 147.379 69.6244C136.675 65.5088 124.65 68.0941 113.278 66.6126C105.469 65.5934 98.0399 62.6597 90.7119 59.7504C83.0389 56.7043 75.2456 53.7153 67.9745 49.7738C60.5831 45.7607 58.1865 41.7655 49.2201 45.9072Z" fill="#F92626"/>
<path d="M116.692 74.2025C116.692 74.2025 117.017 79.0866 116.366 79.9006C116.366 79.9006 130.684 82.5054 132.474 81.6914C134.263 80.8774 133.45 79.575 132.474 79.0866C131.498 78.5982 126.617 76.8073 125.966 73.3884C125.966 73.3884 128.081 72.4116 121.247 73.714C114.414 75.0165 116.692 74.2025 116.692 74.2025Z" fill="#DC9BA3"/>
<path opacity="0.05" d="M116.692 74.2025C116.692 74.2025 117.017 79.0866 116.366 79.9006C116.366 79.9006 130.684 82.5054 132.474 81.6914C134.263 80.8774 133.45 79.575 132.474 79.0866C131.498 78.5982 126.617 76.8073 125.966 73.3884C125.966 73.3884 128.081 72.4116 121.247 73.714C114.414 75.0165 116.692 74.2025 116.692 74.2025Z" fill="black"/>
<path d="M60.8548 6.18969L60.793 6.219C57.8395 7.61295 55.2704 9.70691 53.3088 12.3192C52.1991 13.7845 50.8357 15.1813 49.539 15.4125C46.6592 15.9205 25.4837 37.9575 30.5665 58.4675C35.6493 78.9775 65.3014 79.8241 65.3014 79.8241C65.3014 79.8241 71.6077 80.8937 75.2261 83.0329C76.071 83.5328 77.0155 83.8407 77.9925 83.9346C78.9696 84.0286 79.9553 83.9064 80.8799 83.5767C85.1882 82.0431 92.269 79.8192 95.4611 80.5029C100.204 81.5205 140.855 64.5694 140.855 64.5694C140.855 64.5694 123.914 48.289 99.0129 48.6358C99.0129 48.6358 59.7126 21.1757 61.0679 9.81858L60.8548 6.18969Z" fill="#F92626"/>
<path opacity="0.1" d="M60.8548 6.18969L60.793 6.219C57.8395 7.61295 55.2704 9.70691 53.3088 12.3192C52.1991 13.7845 50.8357 15.1813 49.539 15.4125C46.6592 15.9205 25.4837 37.9575 30.5665 58.4675C35.6493 78.9775 65.3014 79.8241 65.3014 79.8241C65.3014 79.8241 71.6077 80.8937 75.2261 83.0329C76.071 83.5328 77.0155 83.8407 77.9925 83.9346C78.9696 84.0286 79.9553 83.9064 80.8799 83.5767C85.1882 82.0431 92.269 79.8192 95.4611 80.5029C100.204 81.5205 140.855 64.5694 140.855 64.5694C140.855 64.5694 123.914 48.289 99.0129 48.6358C99.0129 48.6358 59.7126 21.1757 61.0679 9.81858L60.8548 6.18969Z" fill="black"/>
<path d="M60.8856 6.15062L56.8181 10.0579C56.8181 10.0579 53.7267 16.0816 50.9608 16.57C48.1949 17.0584 27.8574 38.2229 32.7384 57.9221C37.6194 77.6213 66.092 78.4354 66.092 78.4354C66.092 78.4354 72.0175 79.4399 75.5042 81.4505C76.3496 81.9457 77.2923 82.2516 78.2673 82.3469C79.2423 82.4421 80.2263 82.3246 81.1515 82.0024C85.2987 80.5372 92.0166 78.4354 95.051 79.0866C99.6066 80.0634 138.655 63.783 138.655 63.783C138.655 63.783 122.385 48.1539 98.4677 48.4795C98.4677 48.4795 60.7212 22.1054 62.0228 11.1975L60.8856 6.15062Z" fill="#F92626"/>
<path opacity="0.1" d="M88.1027 68.6364C93.1134 63.6226 89.7808 52.1589 80.6592 43.0316C71.5377 33.9042 60.0813 30.5695 55.0706 35.5833C50.06 40.5972 53.3925 52.0608 62.5141 61.1882C71.6357 70.3156 83.0921 73.6502 88.1027 68.6364Z" fill="black"/>
<path d="M60.8857 26.8266C60.8857 26.8266 62.6754 29.7571 61.5365 35.4552C60.3976 41.1534 64.4651 41.1534 64.4651 41.1534H72.6002L75.3661 33.99L71.4613 34.3156C71.4613 34.3156 68.8581 33.6644 69.997 27.6407L60.8857 26.8266Z" fill="#FFD2D9"/>
<path d="M85.2907 19.9889C84.0461 23.9532 82.4858 28.7803 81.6528 31.3559L81.0605 33.176L75.6914 27.6407C75.6914 27.6407 75.9273 27.092 76.2804 26.3236C77.0662 24.6207 78.4346 21.8416 79.1081 21.6169C79.1081 21.6169 71.6239 21.1285 69.3461 22.9194C67.0683 24.7102 67.7191 18.0353 67.7191 18.0353C67.7191 18.0353 72.112 17.7097 73.739 16.7328C75.366 15.756 84.1518 14.7792 84.1518 14.7792C84.1518 14.7792 87.0805 14.2908 85.2907 19.9889Z" fill="#FFD2D9"/>
<path opacity="0.1" d="M55.842 69.1555C55.842 69.1555 69.6716 62.8062 74.5526 63.783L55.842 69.1555Z" fill="black"/>
<path opacity="0.1" d="M41.687 54.1776C41.687 54.1776 58.4451 53.5264 67.5564 59.3873L41.687 54.1776Z" fill="black"/>
<path opacity="0.1" d="M49.9849 60.8526C49.9849 60.8526 63.1636 57.5965 70.1597 58.7361L49.9849 60.8526Z" fill="black"/>
<path d="M134.101 67.8531L132.962 76.1561L130.033 75.8305C130.033 75.8305 129.856 75.6677 129.555 75.3942C128.766 74.699 127.124 73.3363 125.552 72.5939C125.021 72.3224 124.444 72.1503 123.851 72.086L127.105 67.2019C127.896 67.4986 128.708 67.7391 129.534 67.9215C130.391 68.1226 131.269 68.2264 132.15 68.2308C132.819 68.2432 133.484 68.1145 134.101 67.8531Z" fill="#FFD2D9"/>
<path d="M125.966 73.714C124.502 75.0165 117.831 72.2488 116.692 76.4817L115.644 72.467L112.418 60.1118L111.974 58.4105L109.286 58.2949L78.4411 56.9778L76.6904 56.9062L75.7695 56.8671L76.9914 56.2615L85.1264 52.2272C85.1264 52.2272 88.055 52.0221 92.0981 51.467C98.2254 50.6269 106.904 48.9842 111.804 46.0423C119.939 41.1582 123.031 57.6014 123.031 57.6014C123.031 57.6014 124.267 61.774 125.211 65.8848C125.66 67.8385 126.042 69.7921 126.187 71.2671C126.325 72.5191 126.283 73.4324 125.966 73.714Z" fill="#E9E9EF"/>
<path opacity="0.05" d="M125.966 73.714C124.501 75.0165 117.831 72.2488 116.692 76.4817L115.644 72.467L112.418 60.1118L111.973 58.4105L109.208 58.2477L79.4009 56.4064L77.5607 56.2924L76.9945 56.2582L76.2607 56.2127L85.1279 52.224C85.1279 52.224 88.0565 52.0188 92.0996 51.4637C98.2269 50.6236 106.905 48.9809 111.806 46.0391C119.941 41.155 123.032 57.5981 123.032 57.5981C123.032 57.5981 124.269 61.7708 125.212 65.8816C125.661 67.8352 126.044 69.7888 126.189 71.2638C126.325 72.5191 126.283 73.4324 125.966 73.714Z" fill="black"/>
<path opacity="0.1" d="M129.534 67.9215L126.687 71.2622L125.548 72.594C125.016 72.3224 124.439 72.1503 123.846 72.086L127.1 67.2019C127.893 67.4988 128.707 67.7393 129.534 67.9215Z" fill="black"/>
<path d="M129.383 67.5275L126.199 71.2622L124.664 73.0628V73.5512C122.787 73.9843 116.934 72.7502 115.644 72.467C115.481 72.4328 115.39 72.4116 115.39 72.4116C111.648 72.5744 97.8187 64.4342 97.8187 64.4342C97.8187 64.4342 82.6876 67.0391 75.3661 66.3879C71.2775 66.0232 70.1321 64.5433 69.9173 63.306C69.8228 62.6945 69.907 62.0686 70.1597 61.5038L76.6905 56.9062L77.5577 56.2957L78.9423 55.3189C78.9423 55.3189 81.3486 54.7735 84.4057 54.0979C89.181 53.0445 95.5458 51.6753 96.8344 51.576C98.9495 51.4132 104.319 53.2041 107.41 56.7857C107.942 57.348 108.543 57.8404 109.2 58.251L109.284 58.3063C110.153 58.8826 111.224 59.4964 112.416 60.1232C116.355 62.199 121.606 64.4277 125.216 65.8913C127.682 66.8828 129.383 67.5275 129.383 67.5275Z" fill="#E9E9EF"/>
<path opacity="0.1" d="M134.101 67.8531L132.962 76.1561L130.033 75.8305C130.033 75.8305 129.856 75.6677 129.555 75.3942C130.206 75.4088 131.273 75.2216 131.498 73.8768C131.498 73.8768 130.37 69.9289 132.148 68.2308C132.818 68.2434 133.484 68.1147 134.101 67.8531Z" fill="black"/>
<path d="M131.823 73.8768C131.823 73.8768 130.196 68.1787 133.938 67.5275L140.121 69.9696L147.28 70.458C147.28 70.458 149.149 73.5122 146.152 76.931C145.331 77.8581 144.331 78.6099 143.213 79.1414C142.095 79.6729 140.881 79.9732 139.644 80.0243L131.821 80.3906L129.381 75.3437C129.381 75.3437 131.498 75.8305 131.823 73.8768Z" fill="#DC9BA3"/>
<path opacity="0.1" d="M92.0996 51.4637C91.2861 51.703 87.8889 52.7173 84.4136 54.0946C82.6965 54.7562 81.0237 55.5278 79.4057 56.4048C79.0689 56.5936 78.7549 56.7841 78.4458 56.9762C77.5347 57.5542 76.8009 58.1468 76.347 58.7345C74.3392 61.3394 71.3895 62.733 69.9219 63.3044C69.8275 62.6928 69.9117 62.067 70.1644 61.5022L76.6903 56.9062L75.7694 56.8671L76.9913 56.2615L76.2575 56.2159L85.1247 52.2272C85.1247 52.2272 88.0581 52.0221 92.0996 51.4637Z" fill="black"/>
<path opacity="0.1" d="M81.6527 31.3558L81.0605 33.176L75.6914 27.6407C75.6914 27.6407 75.9273 27.092 76.2804 26.3236C76.9588 27.7644 80.1998 30.2765 81.6527 31.3558Z" fill="black"/>
<path d="M62.2816 34.06C62.0896 33.5082 61.9491 32.9397 61.8618 32.362L54.8657 34.804C54.8657 34.804 50.066 38.4671 50.5541 46.4445C50.5541 46.4445 56.4927 44.2466 59.0959 46.8515L59.1496 47.3106C59.7001 51.8621 61.7128 56.1116 64.8848 59.4199C66.1864 60.7793 67.3985 62.3129 68.0444 63.783C68.0444 63.783 72.6 62.4806 75.3659 58.8989C78.1318 55.3172 91.3106 51.5728 91.3106 51.5728C91.3106 51.5728 84.3144 51.7356 83.3382 49.2935C82.362 46.8515 79.108 41.6418 80.2469 37.5717C81.3858 33.5016 82.0366 32.1992 82.0366 32.1992C82.0366 32.1992 75.3659 27.4779 75.854 26.0126L71.6238 30.8967L69.6714 31.5479C69.8248 31.9259 69.9027 32.3302 69.9008 32.738C70.005 37.1647 63.7638 38.2294 62.2816 34.06Z" fill="#CEDAD5"/>
<path d="M23.3979 54.4642C23.3979 54.4642 24.7613 56.255 22.7682 58.9413C20.7751 61.6275 19.1319 63.9084 19.7973 65.5885C19.7973 65.5885 22.804 60.5856 25.251 60.5156C27.698 60.4456 26.0905 57.4777 23.3979 54.4642Z" fill="#F92626"/>
<path opacity="0.1" d="M23.3979 54.4642C23.5167 54.6367 23.6104 54.8253 23.6761 55.0242C26.0646 57.8309 27.3352 60.4504 25.0412 60.5172C22.9033 60.5791 20.3391 64.4033 19.7241 65.3704C19.7444 65.4449 19.7689 65.5183 19.7973 65.5901C19.7973 65.5901 22.804 60.5872 25.2511 60.5172C27.6981 60.4472 26.0906 57.4777 23.3979 54.4642Z" fill="black"/>
<path d="M25.9279 56.7434C25.9279 57.3718 25.858 57.883 25.7652 57.883C25.6725 57.883 25.6025 57.3735 25.6025 56.7434C25.6025 56.1134 25.6904 56.4178 25.7766 56.4178C25.8629 56.4178 25.9279 56.115 25.9279 56.7434Z" fill="#FFD037"/>
<path d="M26.8015 57.4939C26.25 57.7951 25.77 57.9824 25.7293 57.8993C25.6887 57.8163 26.1003 57.5167 26.6518 57.2172C27.2034 56.9176 26.9854 57.1358 27.0277 57.2172C27.07 57.2986 27.3531 57.1928 26.8015 57.4939Z" fill="#FFD037"/>
<path d="M16.1951 54.4642C16.1951 54.4642 14.8317 56.255 16.8248 58.9413C18.8178 61.6275 20.4611 63.9084 19.7957 65.5885C19.7957 65.5885 16.789 60.5856 14.3419 60.5156C11.8949 60.4456 13.504 57.4777 16.1951 54.4642Z" fill="#F92626"/>
<path opacity="0.1" d="M16.1951 54.4642C16.0763 54.6367 15.9826 54.8253 15.9169 55.0242C13.5284 57.8309 12.2578 60.4504 14.5518 60.5172C16.6897 60.5791 19.2539 64.4033 19.8689 65.3704C19.8486 65.4449 19.8241 65.5183 19.7957 65.5901C19.7957 65.5901 16.789 60.5872 14.3419 60.5172C11.8949 60.4472 13.504 57.4777 16.1951 54.4642Z" fill="black"/>
<path d="M13.6604 56.7434C13.6604 57.3718 13.7304 57.883 13.8231 57.883C13.9158 57.883 13.9858 57.3735 13.9858 56.7434C13.9858 56.1134 13.8979 56.4178 13.8117 56.4178C13.7255 56.4178 13.6604 56.115 13.6604 56.7434Z" fill="#FFD037"/>
<path d="M12.7916 57.4939C13.3431 57.7951 13.8231 57.9824 13.8638 57.8993C13.9045 57.8163 13.4928 57.5167 12.9413 57.2172C12.3897 56.9176 12.6077 57.1358 12.5654 57.2172C12.5231 57.2986 12.24 57.1928 12.7916 57.4939Z" fill="#FFD037"/>
<path d="M14.0947 65.3606C14.0947 65.3606 17.9068 65.2434 19.0555 64.4245C20.2041 63.6056 24.9127 62.6336 25.2039 63.9361C25.4951 65.2385 30.9326 70.4661 26.6292 70.5003C22.3257 70.5345 16.6296 69.8296 15.4826 69.1311C14.3355 68.4327 14.0947 65.3606 14.0947 65.3606Z" fill="#A8A8A8"/>
<path opacity="0.2" d="M26.7073 70.0493C22.4039 70.0835 16.7078 69.3786 15.5607 68.6802C14.687 68.1478 14.3389 66.2381 14.2233 65.3573H14.0964C14.0964 65.3573 14.3372 68.4343 15.4843 69.1327C16.6313 69.8312 22.3274 70.5377 26.6309 70.5019C27.8739 70.4922 28.3018 70.0493 28.279 69.3949C28.1049 69.7937 27.6315 70.0412 26.7073 70.0493Z" fill="black"/>
<path d="M44.5668 86.893C44.865 86.6497 45.0823 86.3216 45.19 85.952C45.2713 85.5775 45.1119 85.1298 44.7539 84.9931C44.3537 84.84 43.9258 85.1168 43.602 85.3984C43.2782 85.6801 42.9056 85.9992 42.481 85.9389C42.6992 85.741 42.8625 85.4898 42.9549 85.2099C43.0473 84.93 43.0656 84.6309 43.0081 84.3419C42.9898 84.222 42.9392 84.1095 42.8617 84.0162C42.6388 83.7786 42.2369 83.8811 41.9701 84.0683C41.1241 84.6642 40.8882 85.8136 40.8833 86.849C40.7987 86.4762 40.8703 86.0871 40.867 85.7094C40.8638 85.3317 40.7596 84.8954 40.4375 84.6968C40.2377 84.5894 40.0134 84.536 39.7867 84.5421C39.406 84.5274 38.9829 84.5665 38.7226 84.8449C38.3972 85.19 38.4834 85.7713 38.7649 86.1473C39.0464 86.5234 39.4727 86.766 39.8664 87.0297C40.182 87.2174 40.4511 87.474 40.6539 87.7802C40.6777 87.8227 40.6973 87.8674 40.7124 87.9137H43.0927C43.6279 87.6417 44.1238 87.2983 44.5668 86.893Z" fill="#F92626"/>
<path d="M55.1422 92.0718C55.4404 91.8285 55.6577 91.5003 55.7654 91.1307C55.8467 90.7563 55.6873 90.3086 55.3293 90.1718C54.9291 90.0188 54.5012 90.2956 54.1774 90.5772C53.8537 90.8589 53.4811 91.178 53.0564 91.1177C53.2747 90.9198 53.438 90.6686 53.5303 90.3887C53.6227 90.1088 53.6411 89.8097 53.5836 89.5206C53.5652 89.4008 53.5146 89.2882 53.4371 89.195C53.2142 88.9573 52.8124 89.0599 52.5456 89.2471C51.6995 89.843 51.4636 90.9924 51.4587 92.0278C51.3741 91.655 51.4457 91.2659 51.4424 90.8882C51.4392 90.5105 51.3351 90.0742 51.0129 89.8755C50.8132 89.7681 50.5888 89.7148 50.3621 89.7209C49.9814 89.7062 49.5584 89.7453 49.2981 90.0237C48.9727 90.3688 49.0589 90.95 49.3404 91.3261C49.6218 91.7022 50.0481 91.9448 50.4418 92.2085C50.7574 92.3962 51.0266 92.6528 51.2293 92.959C51.2532 93.0015 51.2728 93.0462 51.2879 93.0925H53.6682C54.2034 92.8205 54.6992 92.4771 55.1422 92.0718Z" fill="#F92626"/>
<path d="M68.1257 67.4461C68.1257 67.4461 83.9077 60.934 96.761 67.1205L93.6697 73.6326L78.864 73.9582L68.1257 67.4461Z" fill="#F92626"/>
<path opacity="0.1" d="M69.7497 29.7799C69.7992 29.1713 69.8818 28.5659 69.997 27.9663L60.8857 27.1523C60.8857 27.1523 61.517 27.6976 61.792 29.7327C62.8609 30.3676 64.1088 31.2223 65.4413 31.2223C66.9963 31.2247 68.5093 30.7182 69.7497 29.7799Z" fill="black"/>
<path d="M65.5226 30.9781C69.4763 30.9781 72.6814 27.771 72.6814 23.8148C72.6814 19.8586 69.4763 16.6514 65.5226 16.6514C61.5689 16.6514 58.3638 19.8586 58.3638 23.8148C58.3638 27.771 61.5689 30.9781 65.5226 30.9781Z" fill="#FFD2D9"/>
<path d="M60.2348 25.687H61.211V22.9194L62.1872 19.9889C62.1872 19.9889 67.0683 17.7097 69.3461 18.1981L71.1358 19.8261C71.1358 19.8261 71.6239 15.9188 68.6953 14.4536C65.7666 12.9884 60.5602 13.6396 59.2586 14.7792C57.957 15.9188 55.8419 17.8725 57.4689 23.245L57.957 24.5474C57.957 24.5474 59.9094 23.8962 60.2348 25.687Z" fill="#844F6E"/>
<g opacity="0.05">
<path opacity="0.05" d="M72.8799 29.4478L73.4135 29.2703L75.8768 26.4327C75.8284 26.2982 75.8228 26.1521 75.8605 26.0143L72.8799 29.4478Z" fill="black"/>
<path opacity="0.05" d="M69.4551 34.6982C70.7453 34.1284 71.7329 32.8911 71.689 31.1165C71.689 31.0204 71.6889 30.9293 71.6727 30.843L71.6206 30.9016L69.6682 31.5528C69.8215 31.9307 69.8995 32.335 69.8976 32.7429C69.9233 33.4222 69.7707 34.0963 69.4551 34.6982Z" fill="black"/>
<path opacity="0.05" d="M88.4342 51.4393C84.3569 52.8589 78.8349 55.0942 77.1558 57.2709C77.1151 57.3246 77.0728 57.3751 77.0305 57.4337C81.4983 54.3681 91.3107 51.5728 91.3107 51.5728C90.3501 51.5828 89.3897 51.5382 88.4342 51.4393Z" fill="black"/>
<path opacity="0.05" d="M69.8341 62.155C69.1833 60.6898 67.968 59.1513 66.6745 57.7919C63.5025 54.4835 61.4898 50.234 60.9393 45.6825L60.8856 45.2234C58.2824 42.6186 52.3438 44.8164 52.3438 44.8164C52.0347 39.7565 53.8521 36.4337 55.222 34.6787L54.8657 34.804C54.8657 34.804 50.066 38.4671 50.5541 46.4445C50.5541 46.4445 56.4927 44.2466 59.0959 46.8515L59.1496 47.3106C59.7001 51.8621 61.7128 56.1116 64.8848 59.4199C66.1864 60.7793 67.3985 62.3129 68.0444 63.783C68.0444 63.783 72.0094 62.6434 74.7867 59.5892C73.2898 60.7139 71.616 61.5811 69.8341 62.155Z" fill="black"/>
</g>
<path d="M68.0445 43.107C68.0445 43.107 60.2349 54.3404 56.1673 57.5965C52.0998 60.8526 50.9609 56.1313 50.9609 56.1313V45.7119L58.1197 44.8978L58.1962 45.8861L58.2824 47.0143L64.9532 39.8509C64.9532 39.8509 71.6239 33.8272 72.9255 37.4089C74.2271 40.9906 68.0445 43.107 68.0445 43.107Z" fill="#FFD2D9"/>
<path opacity="0.1" d="M58.1962 45.886C57.2189 46.455 56.1823 46.9152 55.1049 47.2585C53.5674 47.7322 51.8054 47.234 50.9561 46.9329V45.7167L58.1149 44.9027L58.1962 45.886Z" fill="black"/>
<path d="M50.8796 44.6536L50.4517 46.3973C50.4517 46.3973 52.9947 47.5841 55.1098 46.9329C57.2249 46.2817 58.8519 45.142 59.1773 44.9792C59.5027 44.8164 57.8757 43.0256 57.8757 43.0256L50.8796 44.6536Z" fill="#CEDAD5"/>
<path opacity="0.1" d="M97.7373 64.5157C98.8223 63.6831 100.03 63.024 101.317 62.562C102.54 62.1413 103.692 61.5375 104.733 60.7712" fill="black"/>
<path opacity="0.2" d="M147.279 70.458L147.013 70.4401C147.4 71.4169 147.959 73.8248 145.664 76.4475C144.843 77.3746 143.843 78.1263 142.725 78.6578C141.607 79.1893 140.393 79.4897 139.156 79.5408L131.579 79.8957L131.821 80.3955L139.646 80.0243C140.882 79.9732 142.096 79.6729 143.215 79.1414C144.333 78.6099 145.332 77.8581 146.154 76.931C149.149 73.5122 147.279 70.458 147.279 70.458Z" fill="white"/>
<path opacity="0.05" d="M110.385 78.8424H110.361C110.382 79.2266 110.42 80.0194 110.426 80.8904C110.433 80.1252 110.408 79.3731 110.385 78.8424Z" fill="#00FF00"/>
<path opacity="0.05" d="M119.653 77.4357C119.676 77.5345 119.701 77.6316 119.73 77.7271C119.889 77.636 120.118 77.4634 119.653 77.4357Z" fill="#00FF00"/>
<path opacity="0.2" d="M132.474 81.203C130.806 81.9617 118.265 79.7524 116.56 79.4464C116.526 79.609 116.46 79.7633 116.366 79.9006C116.366 79.9006 130.684 82.5054 132.474 81.6914C133.395 81.273 133.626 80.7244 133.5 80.2262C133.406 80.5729 133.1 80.9181 132.474 81.203Z" fill="white"/>
<path opacity="0.05" d="M110.361 78.844C110.353 78.6812 110.347 78.5981 110.347 78.5981C110.347 78.5981 109.519 78.8944 110.361 78.844Z" fill="#00FF00"/>
<path opacity="0.1" d="M71.855 20.2331H61.9563C61.5897 20.2331 61.2925 20.5305 61.2925 20.8974V25.1042C61.2925 25.471 61.5897 25.7684 61.9563 25.7684H71.855C72.2216 25.7684 72.5188 25.471 72.5188 25.1042V20.8974C72.5188 20.5305 72.2216 20.2331 71.855 20.2331Z" fill="black"/>
<path opacity="0.1" d="M61.3836 22.024H57.4592C57.24 22.024 57.0623 22.2018 57.0623 22.4212V23.7432C57.0623 23.9626 57.24 24.1404 57.4592 24.1404H61.3836C61.6028 24.1404 61.7806 23.9626 61.7806 23.7432V22.4212C61.7806 22.2018 61.6028 22.024 61.3836 22.024Z" fill="black"/>
<path d="M71.855 20.0703H61.9563C61.5897 20.0703 61.2925 20.3677 61.2925 20.7346V24.9414C61.2925 25.3082 61.5897 25.6056 61.9563 25.6056H71.855C72.2216 25.6056 72.5188 25.3082 72.5188 24.9414V20.7346C72.5188 20.3677 72.2216 20.0703 71.855 20.0703Z" fill="#7679B4"/>
<path d="M71.8434 20.3959H63.2659C62.8993 20.3959 62.6021 20.6933 62.6021 21.0602V24.6158C62.6021 24.9826 62.8993 25.28 63.2659 25.28H71.8434C72.21 25.28 72.5072 24.9826 72.5072 24.6158V21.0602C72.5072 20.6933 72.21 20.3959 71.8434 20.3959Z" fill="#565388"/>
<path d="M61.3836 21.8611H57.4592C57.24 21.8611 57.0623 22.039 57.0623 22.2584V23.5804C57.0623 23.7997 57.24 23.9776 57.4592 23.9776H61.3836C61.6028 23.9776 61.7806 23.7997 61.7806 23.5804V22.2584C61.7806 22.039 61.6028 21.8611 61.3836 21.8611Z" fill="#565388"/>
<path opacity="0.1" d="M70.0717 20.3927C71.8324 19.3275 73.2621 17.7931 74.201 15.9611C74.31 15.7479 74.4142 15.5086 74.354 15.2774C74.2384 14.8345 73.6609 14.7564 73.2443 14.5659C72.4683 14.2094 72.1412 13.3091 71.632 12.6237C71.1967 12.052 70.6114 11.6123 69.9413 11.3536C69.2711 11.095 68.5424 11.0274 67.8362 11.1584C67.0943 11.3082 66.4077 11.6762 65.6593 11.7869C64.0453 12.0229 62.2849 11.0445 60.8352 11.7869C60.1746 12.1271 59.7272 12.7637 59.3335 13.3986C58.3459 14.9794 57.1077 16.6547 58.0058 18.509C58.5216 19.5689 59.3449 20.448 60.5017 20.7573C61.6585 21.0667 62.9975 20.8094 64.1738 20.6808C65.1419 20.5766 66.1555 20.3552 67.1301 20.4578C68.2706 20.5815 68.9832 21.0471 70.0717 20.3927Z" fill="black"/>
<path d="M70.0717 20.067C71.8324 19.0018 73.2621 17.4675 74.201 15.6355C74.31 15.4223 74.4142 15.1829 74.354 14.9518C74.2384 14.5089 73.6609 14.4308 73.2443 14.2403C72.4683 13.8838 72.1412 12.9835 71.632 12.2981C71.1967 11.7264 70.6114 11.2867 69.9413 11.028C69.2711 10.7693 68.5424 10.7018 67.8362 10.8328C67.0943 10.9826 66.4077 11.3506 65.6593 11.4613C64.0453 11.6973 62.2849 10.7189 60.8352 11.4613C60.1746 11.8015 59.7272 12.4381 59.3335 13.073C58.3459 14.6538 57.1077 16.3291 58.0058 18.1834C58.5216 19.2433 59.3449 20.1224 60.5017 20.4317C61.6585 20.7411 62.9975 20.4838 64.1738 20.3552C65.1419 20.251 66.1555 20.0296 67.1301 20.1322C68.2706 20.2559 68.9832 20.7215 70.0717 20.067Z" fill="#844F6E"/>
<path opacity="0.2" d="M168.998 38.8334L98.2253 51.4914V13.5175L168.998 0.859505V38.8334Z" fill="#F92626"/>
<path opacity="0.2" d="M154.336 5.24053L167.425 2.98244L167.615 8.85151L154.18 11.0998L154.336 5.24053Z" fill="#F92626"/>
<g opacity="0.2">
<path opacity="0.1" d="M128.876 38.008C129.32 37.9076 129.776 37.8698 130.23 37.8957C132.907 37.9429 135.684 38.205 138.31 37.4072C139.704 36.9872 140.955 36.2937 142.394 35.9957C144.834 35.4927 147.275 36.2269 149.674 35.6148C150.163 35.4894 150.76 35.3136 151.106 35.5024C151.508 35.7206 151.223 36.2872 151.713 36.4304C151.868 36.4497 152.021 36.4846 152.169 36.5346C152.348 36.6388 152.235 36.8602 152.056 37.0019C150.968 37.8859 148.754 37.2982 147.39 38.0129C147.088 38.1757 146.86 38.3808 146.577 38.5501C146.129 38.7813 145.654 38.9563 145.163 39.0711L137.592 41.1875C135.78 41.6939 133.943 42.2067 132.069 42.4297C130.194 42.6528 128.25 42.5616 126.877 41.925C126.582 41.7883 126.309 41.6206 126.197 41.3927C125.663 40.3182 126.991 38.5094 128.876 38.008Z" fill="#252223"/>
<path opacity="0.3" d="M122.198 23.0105L128.532 28.0216L134.865 33.0311L124.462 34.9994L114.059 36.966L118.128 29.9883L122.198 23.0105Z" fill="#F92626"/>
<path opacity="0.3" d="M128.784 21.8514L135.118 26.8608L141.452 31.8719L131.049 33.8386L120.646 35.8069L124.715 28.8291L128.784 21.8514Z" fill="#F92626"/>
<path opacity="0.2" d="M138.58 11.4271L126.356 34.7275L149.538 30.213L158.104 28.5931L138.58 11.4271Z" fill="#F92626"/>
<path opacity="0.1" d="M158.104 28.5931L149.538 30.213L138.58 11.4271L158.104 28.5931Z" fill="black"/>
<path opacity="0.2" d="M145.024 22.2291C144.983 22.0774 144.89 21.9451 144.761 21.8557C144.631 21.7663 144.475 21.7256 144.318 21.7407C144.318 21.7407 144.481 20.461 141.845 20.9771C141.8 20.8848 141.734 20.8042 141.653 20.7414C141.571 20.6785 141.477 20.6352 141.376 20.6148C141.275 20.5944 141.171 20.5973 141.072 20.6234C140.972 20.6496 140.88 20.6982 140.802 20.7655L140.69 20.1712C140.69 20.1712 139.245 20.9999 140.776 22.1819L140.96 23.1587C140.965 23.1834 140.972 23.2075 140.983 23.2303C140.991 23.2481 140.998 23.2667 141.002 23.2857C141.072 23.5706 141.587 25.8287 140.418 26.6004C139.167 27.4388 138.451 24.8551 138.451 24.8551C137.638 21.4802 136.089 21.4932 135.721 21.5469C135.677 21.5469 135.632 21.5567 135.586 21.56C135.414 21.5697 134.878 21.7618 134.673 23.7073C134.428 26.0419 133.535 25.4591 133.535 25.4591C131.532 24.3667 130.118 25.3224 130.118 25.3224C126.643 27.3672 129.597 31.2028 130.207 31.9305C129.978 33.0881 129.514 35.128 129.068 35.2127C128.437 35.3315 127.256 37.5489 130.455 40.9971L131.306 40.8343C131.306 40.8343 128.675 37.3958 130.746 35.6848C130.701 35.8108 130.646 35.9332 130.583 36.0511C129.423 38.0357 133.37 40.4272 133.37 40.4272L134.317 40.2482L132.13 37.4919C131.262 36.3523 132.882 35.421 132.882 35.421C134.8 33.8158 133.813 31.8784 133.813 31.8784L138.29 31.0319C137.737 32.2561 136.924 35.2648 139.628 39.2274L140.259 39.1085L139.743 34.3026C139.743 34.3026 139.906 33.2688 141.002 31.7091C141.438 33.6628 142.363 37.0344 143.759 38.4459L144.673 38.2734C144.673 38.2734 143.558 35.0743 143.534 33.8777C143.523 33.3893 143.502 32.909 143.458 32.4271L143.23 29.9069C143.599 29.6726 143.889 29.3315 144.06 28.9289C144.232 28.5262 144.277 28.081 144.19 27.6521L143.349 23.2792C143.337 23.2176 143.338 23.1543 143.351 23.0931C143.364 23.0319 143.39 22.974 143.427 22.9231C143.463 22.8722 143.51 22.8293 143.564 22.7971C143.617 22.7648 143.677 22.7438 143.739 22.7354L144.818 22.5889C144.857 22.582 144.894 22.5667 144.926 22.544C144.958 22.5212 144.986 22.4917 145.005 22.4574C145.025 22.423 145.037 22.3848 145.04 22.3454C145.043 22.3059 145.038 22.2662 145.024 22.2291Z" fill="url(#paint0_linear)"/>
<path opacity="0.2" d="M140.632 30.265C140.632 30.265 141.644 36.2985 143.624 38.2978L144.522 38.135C144.522 38.135 143.428 34.9945 143.399 33.8239C143.388 33.3485 143.368 32.8732 143.324 32.3994L142.957 28.3293L140.632 30.265Z" fill="#535461"/>
<path opacity="0.05" d="M140.632 30.265C140.632 30.265 141.644 36.2985 143.624 38.2978L144.522 38.135C144.522 38.135 143.428 34.9945 143.399 33.8239C143.388 33.3485 143.368 32.8732 143.324 32.3994L142.957 28.3293L140.632 30.265Z" fill="black"/>
<path opacity="0.2" d="M130.464 31.1295C130.464 31.1295 129.814 35.0059 129.199 35.1231C128.584 35.2403 127.419 37.417 130.56 40.8017L131.397 40.6389C131.397 40.6389 128.501 36.8553 131.255 35.3071C131.254 35.312 131.733 32.0754 130.464 31.1295Z" fill="#535461"/>
<path opacity="0.05" d="M130.464 31.1295C130.464 31.1295 129.814 35.0059 129.199 35.1231C128.584 35.2403 127.419 37.417 130.56 40.8017L131.397 40.6389C131.397 40.6389 128.501 36.8553 131.255 35.3071C131.254 35.312 131.733 32.0754 130.464 31.1295Z" fill="black"/>
<path opacity="0.2" d="M140.881 23.2971L140.7 22.343C139.198 21.1839 140.615 20.3699 140.615 20.3699L140.809 21.3923C144.367 20.3666 144.177 21.91 144.177 21.91C144.33 21.8944 144.483 21.9334 144.61 22.0201C144.737 22.1068 144.829 22.2356 144.87 22.3837C144.883 22.421 144.888 22.4606 144.884 22.4999C144.88 22.5392 144.867 22.5771 144.846 22.6108C144.826 22.6444 144.798 22.6731 144.765 22.6947C144.732 22.7162 144.694 22.7302 144.655 22.7354L143.596 22.8803C143.535 22.8885 143.476 22.9091 143.424 22.9407C143.371 22.9724 143.325 23.0145 143.289 23.0645C143.253 23.1145 143.228 23.1713 143.215 23.2315C143.201 23.2916 143.2 23.3538 143.212 23.4143L144.037 27.7074C144.097 28.0146 144.089 28.3312 144.015 28.6351C143.94 28.9391 143.8 29.2231 143.604 29.4673C143.298 29.8434 142.809 30.182 142.028 30.3058L133.854 31.8524C133.854 31.8524 134.83 33.7556 132.939 35.3299C132.939 35.3299 131.348 36.2399 132.201 37.3633L134.347 40.0691L133.418 40.2449C133.418 40.2449 129.544 37.8973 130.683 35.9485C130.992 35.3292 131.13 34.6387 131.084 33.9479C131.038 33.2572 130.809 32.5912 130.421 32.0184C130.421 32.0184 126.451 27.6358 130.23 25.4119C130.23 25.4119 131.625 24.4741 133.59 25.547C133.59 25.547 134.467 26.1185 134.708 23.8278C134.908 21.9181 135.433 21.7293 135.603 21.7195C135.647 21.7195 135.69 21.7195 135.734 21.7065C136.096 21.6544 137.62 21.6414 138.416 24.9544C138.416 24.9544 139.119 27.4844 140.344 26.6752C141.491 25.9182 140.994 23.7008 140.918 23.4192C140.913 23.4007 140.907 23.3827 140.898 23.3654C140.89 23.3434 140.884 23.3205 140.881 23.2971Z" fill="#535461"/>
<path opacity="0.2" d="M138.573 30.4295C138.573 30.4295 136.058 33.9216 139.564 39.0581L140.184 38.9409L139.678 34.2196C139.678 34.2196 139.978 32.2382 142.693 29.6383L138.573 30.4295Z" fill="#535461"/>
<path opacity="0.2" d="M141.28 22.1141C141.639 22.0462 141.875 21.6996 141.807 21.34C141.739 20.9804 141.393 20.744 141.034 20.812C140.674 20.8799 140.438 21.2265 140.506 21.5861C140.574 21.9457 140.92 22.1821 141.28 22.1141Z" fill="#535461"/>
<path opacity="0.2" d="M138.368 25.801C139.133 24.6369 138.678 24.5604 138.381 24.2544C138.18 24.046 136.484 23.9662 135.428 23.9369C135.406 23.8555 135.37 23.7187 135.328 23.5527C135.328 23.5527 135.243 23.2466 135.204 23.0317H135.271L135.261 22.9682L136.562 22.8982C137.674 22.8526 137.727 22.4098 137.727 22.4098C137.753 21.6495 136.499 22.3789 136.499 22.3789C136.25 22.501 135.589 22.4098 135.074 22.3089C135.059 22.2009 135.051 22.0922 135.049 21.9832C135.056 21.8149 135.045 21.6463 135.017 21.4802C134.998 21.3367 134.942 21.2007 134.854 21.0862C134.472 20.6299 134.031 20.2268 133.543 19.888C133.514 19.6007 133.54 19.3105 133.621 19.0333C133.818 18.9318 133.978 18.7697 134.076 18.5707C134.175 18.3717 134.207 18.1464 134.167 17.9278C134.149 17.8277 134.115 17.7311 134.067 17.6413C134.299 17.332 134.19 16.8028 133.868 16.5131C133.834 16.4821 133.797 16.4543 133.757 16.43C133.548 16.2902 133.295 16.2323 133.046 16.2672C132.769 16.3126 132.505 16.4206 132.275 16.5831C132 16.7654 131.733 16.9966 131.405 17.0324C131.167 17.0584 130.917 16.977 130.694 17.0503C130.399 17.1447 130.248 17.4589 130.154 17.7471C130.059 18.0353 129.968 18.3527 129.713 18.5253C129.49 18.6751 129.202 18.6735 128.94 18.7369C128.757 18.7755 128.586 18.8584 128.443 18.9785C128.3 19.0986 128.188 19.2522 128.118 19.4256C128.067 19.5818 128.068 19.7506 128.121 19.9062C128.175 20.0617 128.278 20.1954 128.414 20.2868C128.457 20.3185 128.504 20.3442 128.554 20.3634C128.61 20.3805 128.664 20.4018 128.717 20.4268C128.731 20.4375 128.744 20.4508 128.753 20.4662C128.762 20.4816 128.768 20.4987 128.771 20.5164C128.771 20.5608 128.762 20.6048 128.743 20.645C128.713 20.7348 128.701 20.8299 128.709 20.9243C128.718 21.0187 128.745 21.1104 128.79 21.1937C128.82 21.2545 128.867 21.3053 128.925 21.3402C128.942 21.3538 128.96 21.3653 128.979 21.3744C129.169 21.4574 129.405 21.2702 129.594 21.3548H129.609C129.682 21.4342 129.745 21.5222 129.797 21.6169C129.842 21.6729 129.897 21.7193 129.96 21.7537C130.126 21.8622 130.326 21.9052 130.521 21.8742C130.77 21.8263 131.007 21.7312 131.219 21.5942C131.507 21.4313 131.821 21.2051 131.844 20.8827C131.857 20.6857 131.755 20.4952 131.779 20.2999C131.792 20.2065 131.83 20.1184 131.888 20.0443C131.855 20.2093 131.844 20.3778 131.854 20.5457C131.86 20.6819 131.876 20.8174 131.903 20.9511C131.964 21.3005 132.09 21.6356 132.274 21.9393C132.52 22.3345 132.701 22.7673 132.809 23.2206C132.847 23.4203 132.851 23.6253 132.819 23.8262C132.715 24.409 132.726 24.6597 132.755 24.7656C132.773 24.9088 132.82 24.9105 132.82 24.9105H132.832C132.837 25.0092 132.862 25.1059 132.906 25.1946C132.949 25.2833 133.01 25.3622 133.085 25.4265C134.558 26.0354 137.553 25.1726 137.553 25.1726C136.948 25.3858 136.515 27.0448 136.515 27.0448C136.449 27.4059 136.299 27.7463 136.076 28.0379C135.751 27.9891 135.367 28.3537 135.077 28.567L135.053 28.5833C135.024 28.6026 135.001 28.6277 134.983 28.6569C134.965 28.6862 134.954 28.7188 134.95 28.7528C134.946 28.7867 134.949 28.8211 134.96 28.8536C134.97 28.8862 134.987 28.9161 135.01 28.9415L136.162 30.2048C136.826 30.6753 137.208 30.7063 137.316 30.5728C137.386 30.4848 137.338 30.3286 137.176 30.1771C136.782 29.8108 136.839 28.6224 136.85 28.5214C137.031 28.1144 137.726 26.7794 138.368 25.801Z" fill="url(#paint1_linear)"/>
<path opacity="0.2" d="M133.714 18.8835C133.714 18.8835 133.378 19.6535 133.6 20.3161L132.352 19.6535C132.352 19.6535 132.749 19.5461 132.666 18.6002L133.714 18.8835Z" fill="#F9D5C6"/>
<path opacity="0.2" d="M134.55 23.9873C134.55 23.9873 137.861 24.0346 138.142 24.3341C138.424 24.6337 138.855 24.7135 138.142 25.8433C137.43 26.9732 136.642 28.5979 136.642 28.5979L135.799 28.2121C136.105 27.889 136.307 27.482 136.38 27.0432C136.38 27.0432 136.78 25.4265 137.356 25.223C137.356 25.223 134.53 26.0468 133.126 25.4444C133.126 25.4444 132.752 25.1628 132.926 24.5523C133.1 23.9418 134.55 23.9873 134.55 23.9873Z" fill="#353535"/>
<path opacity="0.1" d="M132.711 19.6828C132.711 19.6828 131.885 19.4793 131.945 20.7476C131.969 21.2072 132.104 21.6542 132.339 22.05C132.607 22.5091 132.99 23.2987 132.877 23.9548C132.715 24.9479 132.877 24.9495 132.877 24.9495L133.3 24.6923C133.87 24.344 134.525 24.1582 135.193 24.155H135.389C135.389 24.155 134.992 22.7289 134.984 22.0972C134.984 21.7977 134.984 21.5193 134.804 21.2832C134.239 20.5538 133.107 19.6812 132.711 19.6828Z" fill="black"/>
<path opacity="0.2" d="M132.7 19.6242C132.7 19.6242 131.873 19.4207 131.934 20.689C131.957 21.1486 132.093 21.5956 132.327 21.9914C132.596 22.4505 132.978 23.2401 132.866 23.8962C132.703 24.8893 132.866 24.8909 132.866 24.8909L133.289 24.6337C133.859 24.2854 134.513 24.0996 135.181 24.0964H135.378C135.378 24.0964 134.981 22.6703 134.973 22.0386C134.973 21.739 134.973 21.4606 134.792 21.2246C134.228 20.492 133.095 19.6242 132.7 19.6242Z" fill="#409CD6"/>
<path opacity="0.1" d="M132.392 20.6401C132.427 20.5465 132.484 20.463 132.558 20.3971C132.633 20.3313 132.723 20.2852 132.82 20.2632C132.917 20.2412 133.018 20.2439 133.114 20.271C133.21 20.2982 133.298 20.349 133.369 20.4187C133.496 20.5529 133.598 20.7097 133.668 20.8811C134.06 21.77 134.358 22.3235 134.358 22.3235C134.61 22.3609 134.859 22.4187 135.101 22.4961C135.139 22.8005 135.188 23.1164 135.188 23.1164L134.132 23.1685L132.685 21.4525C132.685 21.4525 132.244 21.0895 132.392 20.6401Z" fill="black"/>
<path opacity="0.2" d="M132.379 20.5766C132.414 20.483 132.471 20.3995 132.545 20.3336C132.62 20.2678 132.71 20.2217 132.807 20.1997C132.904 20.1777 133.005 20.1804 133.101 20.2075C133.197 20.2347 133.284 20.2855 133.356 20.3552C133.483 20.4894 133.585 20.6462 133.655 20.8176C134.047 21.7065 134.345 22.26 134.345 22.26C134.345 22.26 135.934 22.698 136.344 22.4912C136.344 22.4912 137.526 21.7863 137.506 22.5286C137.506 22.5286 137.459 22.9552 136.408 22.9926L134.12 23.105L132.674 21.389C132.674 21.389 132.233 21.0195 132.379 20.5766Z" fill="#F9D5C6"/>
<path opacity="0.1" d="M132.57 19.0186C132.601 18.8704 132.671 18.9274 132.648 18.6669L133.696 18.9502C133.652 19.0561 133.616 19.1649 133.588 19.2758C133.483 19.3118 133.374 19.3321 133.263 19.3361C133.032 19.3816 132.767 19.1277 132.57 19.0186Z" fill="black"/>
<path opacity="0.2" d="M133.314 19.3208C133.861 19.2173 134.221 18.6893 134.118 18.1416C134.014 17.5938 133.487 17.2336 132.939 17.3371C132.392 17.4406 132.032 17.9686 132.135 18.5164C132.239 19.0642 132.766 19.4243 133.314 19.3208Z" fill="#F9D5C6"/>
<path opacity="0.1" d="M133.54 18.0874C133.361 18.0971 133.165 18.0401 133.014 18.1346C132.863 18.229 132.819 18.4879 132.851 18.6897C132.884 18.8916 132.968 19.0951 132.921 19.2954C132.858 19.5575 132.596 19.7186 132.368 19.857C132.14 19.9954 131.88 20.1826 131.856 20.4464C131.834 20.6369 131.932 20.8241 131.921 21.0162C131.901 21.3304 131.607 21.5469 131.333 21.7065C131.136 21.8376 130.915 21.9289 130.683 21.9751C130.564 21.9961 130.443 21.9855 130.33 21.9444C130.217 21.9032 130.117 21.8329 130.04 21.7407C129.967 21.6397 129.923 21.5046 129.809 21.4525C129.63 21.3678 129.407 21.5502 129.228 21.4688C129.165 21.4354 129.115 21.3822 129.085 21.3174C129.042 21.236 129.016 21.1468 129.007 21.0551C128.999 20.9634 129.01 20.8711 129.038 20.7834C129.055 20.744 129.063 20.7011 129.062 20.658C129.047 20.5555 128.922 20.5213 128.825 20.4838C128.664 20.4069 128.537 20.2741 128.467 20.1103C128.397 19.9464 128.388 19.7627 128.444 19.5933C128.507 19.4262 128.61 19.2775 128.745 19.1609C128.88 19.0443 129.042 18.9634 129.217 18.9258C129.464 18.8639 129.737 18.8672 129.946 18.7239C130.186 18.5611 130.271 18.2469 130.357 17.9669C130.443 17.6869 130.585 17.3808 130.863 17.2912C131.078 17.2212 131.311 17.301 131.535 17.2782C131.846 17.2457 132.096 17.021 132.349 16.8452C132.564 16.6881 132.813 16.5838 133.076 16.5407C133.207 16.5203 133.342 16.5287 133.47 16.5652C133.598 16.6018 133.717 16.6656 133.818 16.7524C134.267 17.161 134.294 18.0467 133.54 18.0874Z" fill="black"/>
<path opacity="0.2" d="M133.502 18.0629C133.323 18.0727 133.128 18.0157 132.977 18.1102C132.825 18.2046 132.781 18.4634 132.814 18.6653C132.846 18.8672 132.931 19.0707 132.884 19.2709C132.82 19.5331 132.558 19.6942 132.331 19.8326C132.103 19.971 131.843 20.1582 131.818 20.422C131.797 20.6124 131.895 20.7997 131.883 20.9918C131.864 21.306 131.569 21.5225 131.296 21.6821C131.098 21.8132 130.877 21.9044 130.645 21.9507C130.527 21.9718 130.406 21.9616 130.294 21.921C130.181 21.8804 130.081 21.8109 130.004 21.7195C129.931 21.6186 129.887 21.4834 129.773 21.4313C129.594 21.3467 129.371 21.529 129.192 21.4476C129.129 21.4142 129.079 21.361 129.049 21.2962C129.006 21.2148 128.98 21.1257 128.972 21.034C128.963 20.9423 128.974 20.8499 129.002 20.7622C129.019 20.7228 129.028 20.68 129.026 20.6369C129.012 20.5343 128.886 20.5001 128.789 20.4627C128.628 20.3857 128.501 20.253 128.431 20.0891C128.361 19.9253 128.353 19.7415 128.408 19.5721C128.471 19.405 128.574 19.2564 128.709 19.1398C128.844 19.0231 129.006 18.9423 129.181 18.9046C129.428 18.8428 129.701 18.846 129.91 18.7028C130.15 18.54 130.235 18.2257 130.321 17.9457C130.408 17.6657 130.549 17.3596 130.827 17.2701C131.042 17.2001 131.275 17.2799 131.499 17.2571C131.81 17.2245 132.061 16.9998 132.313 16.824C132.528 16.667 132.777 16.5627 133.04 16.5196C133.172 16.4992 133.306 16.5075 133.434 16.5441C133.562 16.5806 133.681 16.6444 133.782 16.7312C134.229 17.1366 134.257 18.0206 133.502 18.0629Z" fill="#2F302F"/>
<path opacity="0.1" d="M133.798 20.6157C133.798 20.6157 132.496 20.7004 132.607 21.6104C132.718 22.5205 132.155 20.5734 132.155 20.5734L132.661 20.028L133.383 20.1159L133.798 20.6157Z" fill="black"/>
<path opacity="0.2" d="M133.764 20.5897C133.764 20.5897 132.462 20.6743 132.573 21.5844C132.684 22.4945 132.121 20.5473 132.121 20.5473L132.627 20.0019L133.349 20.0898L133.764 20.5897Z" fill="#409CD6"/>
<path opacity="0.2" d="M134.965 28.8796L136.061 30.1185C136.693 30.5809 137.054 30.6069 137.155 30.4848C137.22 30.4002 137.174 30.2472 137.02 30.099C136.627 29.7246 136.694 28.471 136.694 28.471C136.539 28.4758 136.386 28.4333 136.255 28.3489C136.125 28.2646 136.023 28.1425 135.964 27.9988C135.653 27.95 135.295 28.3033 135.022 28.5084L134.999 28.5247C134.972 28.5445 134.949 28.5698 134.932 28.5991C134.915 28.6284 134.905 28.6609 134.902 28.6944C134.898 28.728 134.902 28.7619 134.913 28.7938C134.924 28.8257 134.942 28.855 134.965 28.8796Z" fill="#409CD6"/>
<path opacity="0.1" d="M136.696 28.4742C136.696 28.4742 136.071 28.5605 135.965 28.0021C136.027 28.1441 136.129 28.2647 136.259 28.3488C136.389 28.4328 136.541 28.4764 136.696 28.4742Z" fill="black"/>
<path opacity="0.1" d="M134.965 28.8796L136.061 30.1185C136.693 30.5809 137.054 30.6069 137.155 30.4848C136.839 30.3872 135.946 29.9964 135.025 28.5133L135.002 28.5296C134.975 28.5491 134.953 28.574 134.936 28.6028C134.92 28.6315 134.909 28.6633 134.906 28.6963C134.902 28.7293 134.906 28.7626 134.916 28.7942C134.926 28.8257 134.943 28.8548 134.965 28.8796Z" fill="black"/>
<path opacity="0.2" d="M117.012 38.5762C117.012 38.5762 114.111 41.1713 120.722 43.0679C120.722 43.0679 121.584 40.3458 119.734 38.6104C119.375 38.2717 118.904 38.0766 118.41 38.0622C117.916 38.0478 117.435 38.2151 117.056 38.5322L117.012 38.5762Z" fill="#F92626"/>
<path opacity="0.2" d="M117.04 38.5273C117.04 38.5273 120.25 40.1375 120.722 43.0679" stroke="#535461" stroke-miterlimit="10"/>
<path opacity="0.2" d="M120.54 43.0956C120.54 43.0956 118.856 39.8037 119.59 37.0084C119.906 35.8351 119.833 34.5906 119.381 33.4625C119.163 32.9297 118.897 32.418 118.586 31.9338" stroke="#535461" stroke-width="2" stroke-miterlimit="10"/>
<path opacity="0.2" d="M119.038 30.1771C119.119 30.6037 118.579 31.9891 118.579 31.9891C118.579 31.9891 117.572 30.8967 117.492 30.4702C117.453 30.2651 117.498 30.0529 117.615 29.8804C117.733 29.7079 117.914 29.5892 118.119 29.5503C118.324 29.5115 118.536 29.5557 118.708 29.6732C118.88 29.7908 118.999 29.972 119.038 30.1771Z" fill="#F92626"/>
<path opacity="0.2" d="M120.763 32.3017C120.6 32.7039 119.394 33.5732 119.394 33.5732C119.394 33.5732 119.142 32.108 119.306 31.7059C119.345 31.6097 119.403 31.5221 119.476 31.4482C119.549 31.3743 119.636 31.3155 119.731 31.2751C119.827 31.2347 119.93 31.2136 120.033 31.2129C120.137 31.2123 120.24 31.2321 120.336 31.2712C120.432 31.3103 120.52 31.368 120.594 31.441C120.668 31.5139 120.726 31.6007 120.767 31.6964C120.807 31.7921 120.828 31.8948 120.829 31.9987C120.83 32.1026 120.81 32.2055 120.771 32.3017H120.763Z" fill="#F92626"/>
<path opacity="0.2" d="M121.47 36.3555C121.125 36.6193 119.646 36.7625 119.646 36.7625C119.646 36.7625 120.169 35.3706 120.512 35.1068C120.678 34.9799 120.887 34.9239 121.093 34.9513C121.3 34.9786 121.488 35.087 121.614 35.2525C121.741 35.4181 121.797 35.6274 121.77 35.8342C121.743 36.0411 121.634 36.2286 121.469 36.3555H121.47Z" fill="#F92626"/>
<path opacity="0.2" d="M121.316 39.5432C121.021 39.8688 119.588 40.2514 119.588 40.2514C119.588 40.2514 119.866 38.7862 120.162 38.4736C120.232 38.3978 120.317 38.3366 120.411 38.2934C120.504 38.2503 120.606 38.2261 120.709 38.2221C120.812 38.2182 120.915 38.2347 121.012 38.2705C121.109 38.3064 121.198 38.361 121.273 38.4313C121.349 38.5015 121.41 38.586 121.454 38.6799C121.497 38.7738 121.521 38.8752 121.525 38.9785C121.529 39.0817 121.512 39.1847 121.476 39.2816C121.441 39.3785 121.386 39.4674 121.316 39.5432Z" fill="#F92626"/>
<path opacity="0.2" d="M117.787 33.9623C118.15 34.2016 119.634 34.2407 119.634 34.2407C119.634 34.2407 119.017 32.8894 118.657 32.6485C118.571 32.5915 118.475 32.5521 118.373 32.5325C118.272 32.5128 118.167 32.5134 118.066 32.5341C117.965 32.5548 117.869 32.5953 117.783 32.6532C117.698 32.7111 117.624 32.7853 117.567 32.8715C117.51 32.9578 117.471 33.0544 117.451 33.1559C117.432 33.2574 117.432 33.3618 117.453 33.4631C117.474 33.5644 117.514 33.6606 117.572 33.7463C117.63 33.8319 117.704 33.9053 117.79 33.9623H117.787Z" fill="#F92626"/>
<path opacity="0.2" d="M117.653 37.6954C118.072 37.8159 119.498 37.4072 119.498 37.4072C119.498 37.4072 118.506 36.3018 118.088 36.1813C117.887 36.1237 117.672 36.1481 117.49 36.2491C117.307 36.3502 117.172 36.5197 117.115 36.7202C117.057 36.9208 117.082 37.136 117.183 37.3186C117.284 37.5012 117.453 37.6361 117.653 37.6938V37.6954Z" fill="#F92626"/>
<path opacity="0.2" d="M118.016 41.3373C118.407 41.5262 119.884 41.3666 119.884 41.3666C119.884 41.3666 119.092 40.1098 118.701 39.9209C118.513 39.83 118.297 39.8176 118.1 39.8862C117.903 39.9549 117.741 40.0992 117.65 40.2872C117.559 40.4753 117.547 40.6917 117.616 40.8889C117.684 41.0862 117.828 41.2481 118.016 41.3389V41.3373Z" fill="#F92626"/>
<path opacity="0.25" d="M119.038 30.1771C119.119 30.6037 118.579 31.9891 118.579 31.9891C118.579 31.9891 117.572 30.8967 117.492 30.4702C117.453 30.2651 117.498 30.0529 117.615 29.8804C117.733 29.7079 117.914 29.5892 118.119 29.5503C118.324 29.5115 118.536 29.5557 118.708 29.6732C118.88 29.7908 118.999 29.972 119.038 30.1771Z" fill="black"/>
<path opacity="0.25" d="M120.763 32.3017C120.6 32.7039 119.394 33.5732 119.394 33.5732C119.394 33.5732 119.142 32.108 119.306 31.7059C119.345 31.6097 119.403 31.5221 119.476 31.4482C119.549 31.3743 119.636 31.3155 119.731 31.2751C119.827 31.2347 119.93 31.2136 120.033 31.2129C120.137 31.2123 120.24 31.2321 120.336 31.2712C120.432 31.3103 120.52 31.368 120.594 31.441C120.668 31.5139 120.726 31.6007 120.767 31.6964C120.807 31.7921 120.828 31.8948 120.829 31.9987C120.83 32.1026 120.81 32.2055 120.771 32.3017H120.763Z" fill="black"/>
<path opacity="0.25" d="M121.47 36.3555C121.125 36.6193 119.646 36.7625 119.646 36.7625C119.646 36.7625 120.169 35.3706 120.512 35.1068C120.678 34.9799 120.887 34.9239 121.093 34.9513C121.3 34.9786 121.488 35.087 121.614 35.2525C121.741 35.4181 121.797 35.6274 121.77 35.8342C121.743 36.0411 121.634 36.2286 121.469 36.3555H121.47Z" fill="black"/>
<path opacity="0.25" d="M121.316 39.5432C121.021 39.8688 119.588 40.2514 119.588 40.2514C119.588 40.2514 119.866 38.7862 120.162 38.4736C120.232 38.3978 120.317 38.3366 120.411 38.2934C120.504 38.2503 120.606 38.2261 120.709 38.2221C120.812 38.2182 120.915 38.2347 121.012 38.2705C121.109 38.3064 121.198 38.361 121.273 38.4313C121.349 38.5015 121.41 38.586 121.454 38.6799C121.497 38.7738 121.521 38.8752 121.525 38.9785C121.529 39.0817 121.512 39.1847 121.476 39.2816C121.441 39.3785 121.386 39.4674 121.316 39.5432Z" fill="black"/>
<path opacity="0.25" d="M117.787 33.9623C118.15 34.2016 119.634 34.2407 119.634 34.2407C119.634 34.2407 119.017 32.8894 118.657 32.6485C118.571 32.5915 118.475 32.5521 118.373 32.5325C118.272 32.5128 118.167 32.5134 118.066 32.5341C117.965 32.5548 117.869 32.5953 117.783 32.6532C117.698 32.7111 117.624 32.7853 117.567 32.8715C117.51 32.9578 117.471 33.0544 117.451 33.1559C117.432 33.2574 117.432 33.3618 117.453 33.4631C117.474 33.5644 117.514 33.6606 117.572 33.7463C117.63 33.8319 117.704 33.9053 117.79 33.9623H117.787Z" fill="black"/>
<path opacity="0.25" d="M117.653 37.6954C118.072 37.8159 119.498 37.4072 119.498 37.4072C119.498 37.4072 118.506 36.3018 118.088 36.1813C117.887 36.1237 117.672 36.1481 117.49 36.2491C117.307 36.3502 117.172 36.5197 117.115 36.7202C117.057 36.9208 117.082 37.136 117.183 37.3186C117.284 37.5012 117.453 37.6361 117.653 37.6938V37.6954Z" fill="black"/>
<path opacity="0.25" d="M118.016 41.3373C118.407 41.5262 119.884 41.3666 119.884 41.3666C119.884 41.3666 119.092 40.1098 118.701 39.9209C118.513 39.83 118.297 39.8176 118.1 39.8862C117.903 39.9549 117.741 40.0992 117.65 40.2872C117.559 40.4753 117.547 40.6917 117.616 40.8889C117.684 41.0862 117.828 41.2481 118.016 41.3389V41.3373Z" fill="black"/>
<path opacity="0.2" d="M123.711 43.7191C123.711 43.7191 122.027 40.4273 122.761 37.6319C123.076 36.4614 123.004 35.22 122.554 34.0942C122.336 33.5614 122.07 33.0497 121.758 32.5655" stroke="#535461" stroke-width="2" stroke-miterlimit="10"/>
<path opacity="0.2" d="M122.215 30.799C122.297 31.2256 121.757 32.611 121.757 32.611C121.757 32.611 120.749 31.5186 120.67 31.0921C120.631 30.887 120.675 30.6749 120.793 30.5024C120.91 30.3299 121.091 30.2111 121.296 30.1723C121.501 30.1334 121.713 30.1776 121.886 30.2951C122.058 30.4127 122.177 30.594 122.215 30.799Z" fill="#F92626"/>
<path opacity="0.2" d="M123.94 32.9236C123.778 33.3258 122.572 34.1951 122.572 34.1951C122.572 34.1951 122.32 32.7299 122.484 32.3278C122.563 32.1335 122.716 31.9785 122.909 31.897C123.102 31.8155 123.32 31.8141 123.514 31.8931C123.708 31.9721 123.863 32.1251 123.944 32.3183C124.026 32.5116 124.027 32.7293 123.948 32.9236H123.94Z" fill="#F92626"/>
<path opacity="0.2" d="M124.648 36.9774C124.303 37.2412 122.824 37.3845 122.824 37.3845C122.824 37.3845 123.346 35.9925 123.69 35.7288C123.855 35.6018 124.064 35.5458 124.271 35.5732C124.478 35.6005 124.665 35.7089 124.792 35.8745C124.919 36.04 124.975 36.2493 124.947 36.4561C124.92 36.663 124.812 36.8505 124.646 36.9774H124.648Z" fill="#F92626"/>
<path opacity="0.2" d="M124.493 40.1651C124.199 40.4907 122.765 40.8733 122.765 40.8733C122.765 40.8733 123.044 39.4081 123.34 39.0955C123.481 38.9425 123.678 38.852 123.887 38.8441C124.095 38.8361 124.298 38.9113 124.451 39.0532C124.604 39.195 124.694 39.3919 124.702 39.6004C124.71 39.8089 124.635 40.0121 124.493 40.1651Z" fill="#F92626"/>
<path opacity="0.2" d="M120.964 34.5842C121.327 34.8235 122.811 34.8626 122.811 34.8626C122.811 34.8626 122.194 33.5114 121.835 33.2704C121.749 33.2134 121.652 33.174 121.551 33.1544C121.449 33.1348 121.345 33.1353 121.244 33.156C121.142 33.1767 121.046 33.2172 120.961 33.2751C120.875 33.333 120.802 33.4072 120.745 33.4934C120.688 33.5797 120.648 33.6764 120.629 33.7779C120.609 33.8794 120.61 33.9837 120.63 34.085C120.651 34.1863 120.692 34.2825 120.749 34.3682C120.807 34.4538 120.881 34.5273 120.968 34.5842H120.964Z" fill="#F92626"/>
<path opacity="0.2" d="M120.831 38.3157C121.249 38.4362 122.676 38.0275 122.676 38.0275C122.676 38.0275 121.683 36.9221 121.265 36.8016C121.065 36.744 120.85 36.7684 120.667 36.8694C120.485 36.9705 120.35 37.1399 120.292 37.3405C120.235 37.5411 120.259 37.7563 120.36 37.9389C120.461 38.1215 120.63 38.2564 120.831 38.3141V38.3157Z" fill="#F92626"/>
<path opacity="0.2" d="M121.199 41.9592C121.589 42.1481 123.066 41.9885 123.066 41.9885C123.066 41.9885 122.274 40.7317 121.884 40.5428C121.791 40.4978 121.69 40.4716 121.586 40.4657C121.483 40.4597 121.38 40.4742 121.282 40.5082C121.185 40.5422 121.095 40.5951 121.018 40.6639C120.94 40.7327 120.878 40.816 120.833 40.9091C120.788 41.0022 120.761 41.1033 120.755 41.2066C120.75 41.3098 120.764 41.4132 120.798 41.5109C120.832 41.6085 120.885 41.6985 120.954 41.7757C121.022 41.8529 121.106 41.9158 121.199 41.9608V41.9592Z" fill="#F92626"/>
<path opacity="0.1" d="M130.433 13.6331L130.147 13.6868C130.2 13.6766 130.247 13.6458 130.277 13.6011C130.308 13.5563 130.319 13.5014 130.309 13.4483C130.299 13.3952 130.268 13.3483 130.223 13.3179C130.179 13.2875 130.124 13.2761 130.071 13.2863L127.752 13.7242C127.699 13.7344 127.652 13.7652 127.622 13.8099C127.592 13.8547 127.58 13.9096 127.59 13.9627C127.6 14.0158 127.631 14.0627 127.676 14.0931C127.721 14.1235 127.776 14.1349 127.829 14.1247L128.115 14.071C128.089 14.076 128.064 14.0862 128.041 14.1009C128.019 14.1156 128 14.1346 127.985 14.1567C127.97 14.1788 127.959 14.2037 127.954 14.23C127.948 14.2562 127.948 14.2832 127.953 14.3095C127.958 14.3358 127.968 14.3609 127.983 14.3832C127.998 14.4056 128.017 14.4249 128.039 14.4399C128.061 14.4549 128.086 14.4655 128.112 14.4709C128.138 14.4763 128.165 14.4765 128.191 14.4715L127.791 14.548C127.738 14.5582 127.691 14.589 127.661 14.6337C127.631 14.6784 127.619 14.7334 127.629 14.7865C127.639 14.8396 127.67 14.8865 127.715 14.9169C127.76 14.9473 127.815 14.9587 127.868 14.9485L130.186 14.5106C130.212 14.5055 130.237 14.4954 130.26 14.4807C130.282 14.466 130.301 14.447 130.316 14.4249C130.332 14.4027 130.342 14.3778 130.347 14.3516C130.353 14.3254 130.353 14.2984 130.348 14.2721C130.343 14.2458 130.333 14.2207 130.318 14.1983C130.304 14.176 130.285 14.1567 130.262 14.1417C130.24 14.1266 130.215 14.1161 130.189 14.1107C130.163 14.1052 130.136 14.105 130.11 14.1101L130.51 14.0336C130.536 14.0285 130.561 14.0184 130.584 14.0037C130.606 13.989 130.625 13.97 130.64 13.9478C130.655 13.9257 130.666 13.9008 130.671 13.8746C130.677 13.8484 130.677 13.8213 130.672 13.795C130.667 13.7687 130.657 13.7437 130.642 13.7213C130.627 13.699 130.608 13.6797 130.586 13.6647C130.564 13.6496 130.539 13.6391 130.513 13.6337C130.487 13.6282 130.46 13.628 130.433 13.6331Z" fill="#252223"/>
<path opacity="0.1" d="M126.234 17.6169L125.948 17.6706C125.974 17.6656 125.999 17.6554 126.022 17.6407C126.044 17.626 126.063 17.607 126.078 17.5849C126.093 17.5627 126.104 17.5378 126.109 17.5116C126.115 17.4854 126.115 17.4584 126.11 17.4321C126.105 17.4058 126.095 17.3807 126.08 17.3584C126.065 17.336 126.046 17.3167 126.024 17.3017C126.002 17.2867 125.977 17.2761 125.951 17.2707C125.925 17.2653 125.898 17.2651 125.871 17.2701L123.548 17.708C123.495 17.7182 123.448 17.749 123.418 17.7937C123.387 17.8385 123.376 17.8934 123.386 17.9465C123.396 17.9997 123.427 18.0466 123.472 18.0769C123.517 18.1073 123.571 18.1187 123.625 18.1085L123.911 18.0548C123.885 18.0598 123.86 18.07 123.837 18.0847C123.815 18.0994 123.796 18.1184 123.781 18.1405C123.766 18.1627 123.755 18.1876 123.75 18.2138C123.744 18.24 123.744 18.267 123.749 18.2933C123.754 18.3196 123.764 18.3447 123.779 18.367C123.794 18.3894 123.813 18.4087 123.835 18.4237C123.857 18.4387 123.882 18.4493 123.908 18.4547C123.934 18.4601 123.961 18.4603 123.987 18.4553L123.587 18.5318C123.561 18.5368 123.536 18.547 123.513 18.5617C123.491 18.5764 123.472 18.5954 123.457 18.6175C123.442 18.6397 123.431 18.6646 123.426 18.6908C123.42 18.717 123.42 18.744 123.425 18.7703C123.43 18.7966 123.44 18.8217 123.455 18.844C123.47 18.8664 123.489 18.8857 123.511 18.9007C123.533 18.9158 123.558 18.9263 123.584 18.9317C123.61 18.9371 123.637 18.9373 123.664 18.9323L125.989 18.4944C126.015 18.4894 126.04 18.4792 126.062 18.4645C126.085 18.4498 126.104 18.4308 126.119 18.4087C126.134 18.3865 126.144 18.3616 126.15 18.3354C126.155 18.3092 126.155 18.2822 126.15 18.2559C126.145 18.2296 126.135 18.2045 126.121 18.1821C126.106 18.1598 126.087 18.1405 126.065 18.1255C126.043 18.1104 126.018 18.0999 125.992 18.0945C125.965 18.0891 125.938 18.0889 125.912 18.0939L126.312 18.0174C126.339 18.0123 126.364 18.0022 126.386 17.9875C126.408 17.9728 126.428 17.9538 126.443 17.9317C126.458 17.9095 126.468 17.8846 126.474 17.8584C126.479 17.8322 126.479 17.8052 126.474 17.7789C126.469 17.7526 126.459 17.7275 126.444 17.7051C126.43 17.6828 126.411 17.6635 126.389 17.6485C126.366 17.6334 126.342 17.6229 126.315 17.6175C126.289 17.612 126.262 17.6118 126.236 17.6169H126.234Z" fill="#252223"/>
<path opacity="0.1" d="M149.951 12.5276L149.665 12.5814C149.691 12.5763 149.716 12.5662 149.738 12.5515C149.761 12.5368 149.78 12.5178 149.795 12.4957C149.81 12.4735 149.82 12.4486 149.826 12.4224C149.831 12.3962 149.831 12.3691 149.826 12.3428C149.821 12.3166 149.811 12.2915 149.797 12.2691C149.782 12.2468 149.763 12.2275 149.741 12.2125C149.719 12.1974 149.694 12.1869 149.668 12.1815C149.641 12.176 149.614 12.1758 149.588 12.1809L147.271 12.6237C147.218 12.6338 147.171 12.6647 147.141 12.7094C147.111 12.7541 147.099 12.8091 147.109 12.8622C147.119 12.9153 147.15 12.9622 147.195 12.9926C147.24 13.023 147.295 13.0343 147.348 13.0242L147.634 12.9705C147.608 12.9755 147.583 12.9856 147.56 13.0003C147.538 13.015 147.519 13.034 147.504 13.0562C147.489 13.0783 147.478 13.1032 147.473 13.1294C147.467 13.1556 147.467 13.1827 147.472 13.209C147.477 13.2353 147.487 13.2603 147.502 13.2827C147.517 13.3051 147.536 13.3243 147.558 13.3394C147.58 13.3544 147.605 13.3649 147.631 13.3704C147.657 13.3758 147.684 13.376 147.711 13.371L147.302 13.4377C147.249 13.4478 147.202 13.4787 147.172 13.5234C147.141 13.5681 147.13 13.6231 147.14 13.6762C147.15 13.7293 147.181 13.7762 147.226 13.8066C147.271 13.837 147.326 13.8483 147.379 13.8382L149.697 13.4003C149.723 13.3952 149.748 13.3851 149.771 13.3704C149.793 13.3557 149.812 13.3367 149.827 13.3146C149.842 13.2924 149.853 13.2675 149.858 13.2413C149.864 13.2151 149.864 13.188 149.859 13.1617C149.854 13.1355 149.844 13.1104 149.829 13.088C149.814 13.0657 149.795 13.0464 149.773 13.0314C149.751 13.0163 149.726 13.0058 149.7 13.0004C149.674 12.9949 149.647 12.9947 149.621 12.9998L150.021 12.9232C150.047 12.9182 150.072 12.9081 150.095 12.8934C150.117 12.8787 150.136 12.8597 150.151 12.8375C150.166 12.8154 150.177 12.7905 150.182 12.7643C150.188 12.7381 150.188 12.711 150.183 12.6847C150.178 12.6584 150.168 12.6334 150.153 12.611C150.138 12.5886 150.119 12.5694 150.097 12.5543C150.075 12.5393 150.05 12.5288 150.024 12.5234C149.998 12.5179 149.971 12.5177 149.944 12.5227L149.951 12.5276Z" fill="#252223"/>
<path opacity="0.3" d="M119.383 19.7205C120.555 19.499 121.325 18.369 121.104 17.1966C120.883 16.0241 119.753 15.2533 118.582 15.4748C117.41 15.6964 116.64 16.8264 116.861 17.9988C117.082 19.1712 118.212 19.942 119.383 19.7205Z" fill="#F92626"/>
<path opacity="0.05" d="M131.865 28.7721C131.865 28.7721 132.95 29.7311 133.456 30.5825C133.962 31.434 133.801 31.7222 133.801 31.7222" fill="black"/>
</g>
</g>
<defs>
<linearGradient id="paint0_linear" x1="138.52" y1="39.4776" x2="135.074" y2="21.2543" gradientUnits="userSpaceOnUse">
<stop stop-color="#808080" stop-opacity="0.25"/>
<stop offset="0.54" stop-color="#808080" stop-opacity="0.12"/>
<stop offset="1" stop-color="#808080" stop-opacity="0.1"/>
</linearGradient>
<linearGradient id="paint1_linear" x1="9768.82" y1="5056.59" x2="9768.82" y2="3741.88" gradientUnits="userSpaceOnUse">
<stop stop-color="#808080" stop-opacity="0.25"/>
<stop offset="0.54" stop-color="#808080" stop-opacity="0.12"/>
<stop offset="1" stop-color="#808080" stop-opacity="0.1"/>
</linearGradient>
<clipPath id="clip0">
<rect width="169" height="92.2314" fill="white" transform="translate(0 0.859505)"/>
</clipPath>
</defs>
</svg>
