<svg width="706" height="422" viewBox="0 0 706 422" fill="none" xmlns="http://www.w3.org/2000/svg">
<g clip-path="url(#clip0)">
<path d="M540.53 417.228C531.491 409.592 526.001 397.529 527.441 385.786C528.881 374.043 537.799 363.248 549.366 360.754C560.934 358.26 574.12 365.163 577.634 376.461C579.567 354.68 581.796 331.986 593.378 313.437C603.866 296.642 622.031 284.624 641.718 282.474C661.405 280.324 682.132 288.445 694.41 303.98C706.688 319.515 709.695 342.1 701.095 359.936C694.761 373.075 683.09 382.853 670.862 390.808C631.349 416.297 583.958 426.663 537.409 419.997L540.53 417.228Z" fill="#F77272"/>
<path d="M674.942 288.895C658.698 302.123 643.796 316.918 630.451 333.065C609.567 358.249 592.667 386.485 580.34 416.789C579.437 418.999 583.028 419.962 583.92 417.775C604.089 368.525 636.287 325.117 677.568 291.52C679.422 290.011 676.781 287.398 674.942 288.895Z" fill="white"/>
<path d="M227.273 415.153C239.687 404.665 247.228 388.097 245.251 371.968C243.273 355.839 231.025 341.011 215.136 337.586C199.248 334.161 181.137 343.642 176.311 359.159C173.655 329.243 170.595 298.073 154.686 272.597C140.281 249.528 115.331 233.022 88.2915 230.069C61.2517 227.116 32.7821 238.269 15.9183 259.607C-0.945469 280.945 -5.0745 311.965 6.73646 336.463C15.4372 354.509 31.467 367.94 48.2622 378.866C101.845 413.725 168.314 428.263 231.56 418.957" fill="#F67272"/>
<path d="M42.6576 238.887C64.9688 257.056 85.4371 277.377 103.766 299.555C122.098 321.711 138.238 345.592 151.958 370.863C159.627 385.039 166.516 399.623 172.594 414.55C173.834 417.586 168.902 418.908 167.676 415.905C156.91 389.589 143.589 364.392 127.906 340.674C112.299 317.042 94.4357 294.979 74.5674 274.796C63.3298 263.385 51.4732 252.602 39.0513 242.493C36.5052 240.42 40.1325 236.832 42.6576 238.887L42.6576 238.887Z" fill="white"/>
<path d="M506.778 421.076H210.583V117.236C210.583 52.5918 263.186 0 327.843 0H389.517C454.175 0 506.778 52.5918 506.778 117.236V421.076Z" fill="#D55858"/>
<path d="M445.105 421.076H210.583V117.236C210.518 92.4659 218.363 68.3217 232.976 48.3188C233.515 47.5848 234.052 46.8602 234.607 46.1436C241.675 36.8751 250.086 28.7125 259.563 21.9251C260.099 21.5357 260.636 21.153 261.182 20.7703C269.112 15.2837 277.69 10.7985 286.721 7.41679C287.257 7.21356 287.803 7.00993 288.349 6.81462C296.517 3.90042 304.984 1.9042 313.594 0.862828C314.128 0.78993 314.675 0.732887 315.224 0.675843C323.614 -0.221049 332.075 -0.221049 340.465 0.675843C341.012 0.732887 341.56 0.789923 342.1 0.863608C350.707 1.90505 359.172 3.90102 367.338 6.81466C367.884 7.00997 368.43 7.21359 368.968 7.41721C377.887 10.7563 386.365 15.1745 394.21 20.5735C394.755 20.9478 395.301 21.3305 395.839 21.7132C401.151 25.5043 406.14 29.7278 410.757 34.3406C414.459 38.0406 417.908 41.9846 421.083 46.146C421.635 46.8603 422.172 47.5848 422.71 48.3177C437.324 68.3207 445.169 92.4654 445.105 117.236V421.076Z" fill="#D94545"/>
<path d="M426.034 285.18C433.205 285.18 439.018 279.368 439.018 272.199C439.018 265.029 433.205 259.217 426.034 259.217C418.864 259.217 413.051 265.029 413.051 272.199C413.051 279.368 418.864 285.18 426.034 285.18Z" fill="#DE0307"/>
<path d="M482.514 411.976H472.565L467.831 373.61L482.515 373.611L482.514 411.976Z" fill="#FFB8B8"/>
<path d="M465.458 409.133H484.645V421.211H453.378C453.378 419.625 453.69 418.055 454.297 416.589C454.904 415.124 455.794 413.793 456.916 412.671C458.038 411.549 459.369 410.66 460.835 410.053C462.301 409.446 463.872 409.133 465.458 409.133Z" fill="#2F2E41"/>
<path d="M532.015 411.976H522.066L517.333 373.61L532.017 373.611L532.015 411.976Z" fill="#FFB8B8"/>
<path d="M514.959 409.133H534.146V421.211H502.879C502.879 419.625 503.191 418.055 503.798 416.589C504.406 415.124 505.295 413.793 506.417 412.671C507.539 411.549 508.871 410.66 510.336 410.053C511.802 409.446 513.373 409.133 514.959 409.133Z" fill="#2F2E41"/>
<path d="M432.606 274.77C431.89 273.716 431.414 272.518 431.212 271.26C431.009 270.002 431.085 268.714 431.434 267.489C431.783 266.263 432.397 265.129 433.231 264.167C434.066 263.204 435.102 262.436 436.266 261.916L470.086 168.723L486.727 177.802L448.112 266.862C448.855 268.874 448.834 271.089 448.052 273.087C447.271 275.085 445.784 276.727 443.872 277.702C441.961 278.677 439.758 278.917 437.682 278.377C435.605 277.836 433.799 276.553 432.606 274.77Z" fill="#FFB8B8"/>
<path d="M526.933 292.282C525.827 291.648 524.874 290.78 524.14 289.738C523.407 288.696 522.911 287.506 522.687 286.251C522.463 284.997 522.517 283.709 522.845 282.477C523.173 281.246 523.767 280.102 524.585 279.125L514.108 180.542L533.047 181.407L537.401 278.376C538.951 279.859 539.904 281.859 540.077 283.998C540.251 286.136 539.635 288.264 538.344 289.978C537.054 291.692 535.18 292.873 533.077 293.298C530.973 293.722 528.787 293.361 526.933 292.282Z" fill="#FFB8B8"/>
<path d="M496.72 151.461C507.728 151.461 516.652 142.539 516.652 131.534C516.652 120.528 507.728 111.607 496.72 111.607C485.713 111.607 476.789 120.528 476.789 131.534C476.789 142.539 485.713 151.461 496.72 151.461Z" fill="#FFB8B8"/>
<path d="M526.806 269.861H466.717L466.789 269.394C466.897 268.695 477.498 199.264 469.68 176.549C468.895 174.317 468.964 171.873 469.873 169.689C470.783 167.505 472.468 165.734 474.605 164.717H474.605C485.781 159.455 507.233 152.976 525.34 168.7C528.004 171.052 530.085 173.991 531.417 177.286C532.749 180.58 533.297 184.139 533.016 187.682L526.806 269.861Z" fill="#DE0307"/>
<path d="M478.258 209.524L451.205 204.037L463.886 173.994C464.645 171.084 466.527 168.594 469.12 167.07C471.712 165.546 474.804 165.112 477.716 165.864C480.629 166.615 483.124 168.491 484.655 171.08C486.185 173.668 486.627 176.758 485.882 179.671L478.258 209.524Z" fill="#DE0307"/>
<path d="M512.905 219.713L511.279 182.439C510.046 175.433 514.058 168.809 520.228 167.726C526.399 166.647 532.426 171.507 533.665 178.565L539.778 213.394L512.905 219.713Z" fill="#DE0307"/>
<path d="M524.806 265.399C534.475 302.214 535.53 349.021 532.921 400.078L519.937 398.455L496.404 301.097L483.42 400.078L468.813 399.267C464.45 345.695 460.201 299.705 467.19 269.455L524.806 265.399Z" fill="#2F2E41"/>
<path d="M509.853 146.934C506.135 150.894 499.23 148.768 498.745 143.358C498.707 142.938 498.71 142.515 498.753 142.096C499.003 139.7 500.388 137.524 500.056 134.994C499.981 134.364 499.747 133.764 499.375 133.25C496.412 129.284 489.456 135.025 486.66 131.434C484.945 129.232 486.961 125.765 485.645 123.304C483.908 120.056 478.765 121.658 475.539 119.879C471.95 117.9 472.164 112.394 474.527 109.046C477.408 104.962 482.46 102.783 487.449 102.469C492.438 102.155 497.392 103.503 502.049 105.318C507.341 107.379 512.589 110.229 515.845 114.881C519.806 120.539 520.187 128.145 518.206 134.76C517.001 138.784 512.889 143.7 509.853 146.934Z" fill="#2F2E41"/>
<path d="M681.64 421.598H82.5189C82.2631 421.598 82.0181 421.495 81.8375 421.314C81.6569 421.133 81.5555 420.888 81.5555 420.632C81.5555 420.377 81.6569 420.131 81.8375 419.95C82.0181 419.769 82.2631 419.667 82.5189 419.666H681.64C681.896 419.667 682.141 419.769 682.322 419.95C682.502 420.131 682.604 420.377 682.604 420.632C682.604 420.888 682.502 421.133 682.322 421.314C682.141 421.495 681.896 421.598 681.64 421.598Z" fill="#3F3D56"/>
<path d="M380.591 333.048H275.097C273.707 333.055 272.372 332.511 271.383 331.536C270.394 330.56 269.833 329.232 269.822 327.843V92.422C269.833 91.033 270.394 89.7049 271.383 88.7292C272.372 87.7534 273.707 87.2096 275.097 87.2171H380.591C381.98 87.2096 383.316 87.7534 384.305 88.7292C385.293 89.7049 385.855 91.033 385.866 92.422V327.843C385.855 329.232 385.293 330.56 384.305 331.536C383.316 332.511 381.98 333.055 380.591 333.048Z" fill="white"/>
<path d="M385.865 163.392H269.822V165.015H385.865V163.392Z" fill="#CCCCCC"/>
<path d="M386.271 255.972H270.228V257.595H386.271V255.972Z" fill="#CCCCCC"/>
<path d="M307.962 87.2172H306.339V333.859H307.962V87.2172Z" fill="#CCCCCC"/>
<path d="M348.537 87.2172H346.914V333.859H348.537V87.2172Z" fill="#CCCCCC"/>
</g>
<defs>
<clipPath id="clip0">
<rect width="706" height="422" fill="white"/>
</clipPath>
</defs>
</svg>
