<svg width="595" height="501" viewBox="0 0 595 501" fill="none" xmlns="http://www.w3.org/2000/svg">
<path opacity="0.2" d="M548.387 0H47.2984V501H548.387V0Z" fill="#DE0307"/>
<path opacity="0.5" d="M472.298 46.776H122.702V454.909H472.298V46.776Z" fill="#DE0307"/>
<path d="M595 71.9631H407.863V431.778H595V71.9631Z" fill="url(#paint0_linear)"/>
<path d="M187.137 73.3338H0V433.149H187.137V73.3338Z" fill="url(#paint1_linear)"/>
<path d="M588.831 77.446H414.032V424.239H588.831V77.446Z" fill="#DE0307"/>
<path d="M6.16934 424.239H180.968L180.968 77.446H6.16934L6.16934 424.239Z" fill="#DE0307"/>
<path d="M152.177 108.973H34.9597V130.219H152.177V108.973Z" fill="url(#paint2_linear)"/>
<path d="M560.726 141.185H443.508V162.431H560.726V141.185Z" fill="url(#paint3_linear)"/>
<path d="M560.04 174.082H442.823V195.328H560.04V174.082Z" fill="url(#paint4_linear)"/>
<path d="M560.04 206.979H442.823V228.226H560.04V206.979Z" fill="url(#paint5_linear)"/>
<path d="M560.04 239.877H442.823V261.123H560.04V239.877Z" fill="url(#paint6_linear)"/>
<path d="M560.04 272.774H442.823V294.021H560.04V272.774Z" fill="url(#paint7_linear)"/>
<path d="M560.04 305.672H442.823V326.918H560.04V305.672Z" fill="url(#paint8_linear)"/>
<path d="M560.04 338.569H442.823V359.815H560.04V338.569Z" fill="url(#paint9_linear)"/>
<path d="M560.04 371.466H442.823V392.713H560.04V371.466Z" fill="url(#paint10_linear)"/>
<path d="M560.04 108.973H442.823V130.219H560.04V108.973Z" fill="url(#paint11_linear)"/>
<path d="M152.177 142.555H34.9597V163.802H152.177V142.555Z" fill="url(#paint12_linear)"/>
<path d="M152.177 174.767H34.9597V196.014H152.177V174.767Z" fill="url(#paint13_linear)"/>
<path d="M152.177 206.979H34.9597V228.226H152.177V206.979Z" fill="url(#paint14_linear)"/>
<path d="M152.177 239.877H34.9597V261.123H152.177V239.877Z" fill="url(#paint15_linear)"/>
<path d="M152.177 272.774H34.9597V294.021H152.177V272.774Z" fill="url(#paint16_linear)"/>
<path d="M150.121 111.714H37.7016V128.163H150.121V111.714Z" fill="white"/>
<path d="M149.778 143.926H37.3589V160.375H149.778V143.926Z" fill="white"/>
<path d="M149.778 176.824H37.3589V193.272H149.778V176.824Z" fill="white"/>
<path d="M149.778 209.721H37.3589V226.17H149.778V209.721Z" fill="white"/>
<path d="M149.778 242.618H37.3589V259.067H149.778V242.618Z" fill="white"/>
<path d="M149.778 275.516H37.3589V291.964H149.778V275.516Z" fill="white"/>
<path d="M152.177 305.672H34.9597V326.918H152.177V305.672Z" fill="url(#paint17_linear)"/>
<path d="M149.778 308.413H37.3589V324.862H149.778V308.413Z" fill="white"/>
<path d="M149.778 308.413H37.3589V324.862H149.778V308.413Z" fill="white"/>
<path d="M149.778 341.311H37.3589V357.759H149.778V341.311Z" fill="white"/>
<path d="M149.778 374.208H37.3589V390.657H149.778V374.208Z" fill="white"/>
<path d="M557.984 111.029H445.565V127.477H557.984V111.029Z" fill="white"/>
<path d="M557.984 143.926H445.565V160.375H557.984V143.926Z" fill="white"/>
<path d="M557.984 176.824H445.565V193.272H557.984V176.824Z" fill="white"/>
<path d="M557.984 209.721H445.565V226.17H557.984V209.721Z" fill="white"/>
<path d="M557.984 242.618H445.565V259.067H557.984V242.618Z" fill="white"/>
<path d="M557.984 275.516H445.565V291.964H557.984V275.516Z" fill="white"/>
<path d="M557.984 308.413H445.565V324.862H557.984V308.413Z" fill="white"/>
<path d="M557.984 341.311H445.565V357.759H557.984V341.311Z" fill="white"/>
<path d="M557.984 374.208H445.565V390.657H557.984V374.208Z" fill="white"/>
<path d="M503.831 442.059H90.4839V468.103H503.831V442.059Z" fill="url(#paint18_linear)"/>
<path d="M501.089 444.8H93.9113V465.361H501.089V444.8Z" fill="#DE0307"/>
<path d="M504.516 34.2681H91.8549V60.9973H504.516V34.2681Z" fill="url(#paint19_linear)"/>
<path d="M501.089 36.3242H93.9113V56.8851H501.089V36.3242Z" fill="#DE0307"/>
<path opacity="0.5" d="M398.266 77.446H198.105V424.239H398.266V77.446Z" fill="#263238"/>
<path d="M452.186 228.26C456.985 234.689 449.801 242.283 449.801 242.283L451.007 242.701C449.232 244.668 442.219 253.543 415.184 293.692C380.567 345.094 333.92 357.917 333.92 357.917C328.252 353.489 321.805 350.163 314.911 348.109V343.257C323.719 340.66 331.768 335.969 338.369 329.587C344.97 323.204 349.928 315.318 352.819 306.604C356.946 298.435 359.092 289.41 359.084 280.258C359.084 247.361 331.822 220.673 298.199 220.673C264.576 220.673 237.315 247.354 237.315 280.258C237.306 289.41 239.453 298.435 243.58 306.604C246.471 315.318 251.429 323.204 258.03 329.587C264.631 335.969 272.679 340.66 281.487 343.257V348.109C274.594 350.163 268.146 353.489 262.479 357.917C262.479 357.917 215.811 345.08 181.194 293.678C154.158 253.529 147.146 244.647 145.371 242.687L146.577 242.269C146.577 242.269 139.414 234.675 144.192 228.246C148.969 221.818 112.556 214.224 116.731 228.246C120.906 242.269 126.28 249.28 126.28 249.28C126.28 249.28 202.506 369.479 242.298 389.341C241.358 393.413 240.884 397.58 240.886 401.76V425.13H355.485V401.76C355.487 397.58 355.013 393.413 354.073 389.341C393.831 369.465 470.091 249.287 470.091 249.287C470.091 249.287 475.465 242.276 479.64 228.253C483.815 214.231 447.408 221.831 452.186 228.26Z" fill="url(#paint20_linear)"/>
<path d="M298.185 341.674C330.388 341.674 356.493 315.573 356.493 283.377C356.493 251.18 330.388 225.08 298.185 225.08C265.983 225.08 239.878 251.18 239.878 283.377C239.878 315.573 265.983 341.674 298.185 341.674Z" fill="#263238"/>
<path d="M298.186 347.397C328.495 347.397 353.065 322.83 353.065 292.526C353.065 262.222 328.495 237.656 298.186 237.656C267.876 237.656 243.306 262.222 243.306 292.526C243.306 322.83 267.876 347.397 298.186 347.397Z" fill="#F8C198"/>
<path d="M276.462 287.379C280.252 287.379 283.324 284.308 283.324 280.519C283.324 276.73 280.252 273.658 276.462 273.658C272.673 273.658 269.601 276.73 269.601 280.519C269.601 284.308 272.673 287.379 276.462 287.379Z" fill="#263238"/>
<path d="M321.053 287.379C324.843 287.379 327.915 284.308 327.915 280.519C327.915 276.73 324.843 273.658 321.053 273.658C317.264 273.658 314.192 276.73 314.192 280.519C314.192 284.308 317.264 287.379 321.053 287.379Z" fill="#263238"/>
<path d="M314.191 317.666C314.191 321.778 307.028 328.528 298.185 328.528C289.343 328.528 282.179 321.778 282.179 317.666C282.179 313.553 289.343 313.663 298.185 313.663C307.028 313.663 314.191 313.553 314.191 317.666Z" fill="white"/>
<path d="M278.176 282.808C279.441 282.808 280.466 281.783 280.466 280.519C280.466 279.255 279.441 278.23 278.176 278.23C276.912 278.23 275.887 279.255 275.887 280.519C275.887 281.783 276.912 282.808 278.176 282.808Z" fill="white"/>
<path d="M323.336 282.808C324.6 282.808 325.625 281.783 325.625 280.519C325.625 279.255 324.6 278.23 323.336 278.23C322.071 278.23 321.046 279.255 321.046 280.519C321.046 281.783 322.071 282.808 323.336 282.808Z" fill="white"/>
<path d="M303.669 262.069C300.324 262.069 297.322 259.163 296.965 255.839C296.85 254.168 297.247 252.501 298.105 251.062C298.962 249.623 300.239 248.48 301.764 247.786C302.076 247.625 302.42 247.536 302.771 247.526C303.923 247.526 304.492 248.896 304.862 249.986C306.014 253.358 308.056 256.648 311.265 258.21C314.473 259.773 318.956 258.971 320.649 255.832C316.111 253.81 314.171 247.464 316.81 243.256C317.831 241.631 319.422 240.254 319.744 238.362C320.333 234.935 316.577 232.441 313.252 231.413C303.656 228.445 270.204 228.116 268.36 242.433C266.427 257.539 293.133 264.07 303.669 262.069Z" fill="#263238"/>
<path d="M249.15 302.152C250.911 301.458 250.741 296.847 248.771 291.854C246.801 286.861 243.777 283.377 242.016 284.071C240.255 284.766 240.425 289.377 242.395 294.369C244.365 299.362 247.389 302.847 249.15 302.152Z" fill="#F8C198"/>
<path d="M353.96 294.333C355.93 289.34 356.1 284.73 354.339 284.035C352.578 283.341 349.554 286.825 347.583 291.818C345.613 296.811 345.444 301.421 347.205 302.116C348.965 302.811 351.99 299.326 353.96 294.333Z" fill="#F8C198"/>
<path d="M332.398 359.363C332.398 359.363 377.071 346.821 410.228 296.522C443.385 246.223 445.098 246.086 445.098 246.086L462.818 253.084C462.818 253.084 380.505 385.688 345.066 392.548C309.626 399.409 332.398 359.363 332.398 359.363Z" fill="#FF9800"/>
<path d="M443.392 246.23C443.392 246.23 450.246 238.801 445.681 232.523C441.116 226.245 475.979 218.816 471.976 232.523C467.973 246.23 462.832 253.084 462.832 253.084L443.392 246.23Z" fill="#F8C198"/>
<path d="M263.973 359.363C263.973 359.363 219.3 346.821 186.143 296.522C152.986 246.223 151.273 246.086 151.273 246.086L133.553 253.084C133.553 253.084 215.873 385.688 251.319 392.548C286.765 399.409 263.973 359.363 263.973 359.363Z" fill="#FF9800"/>
<path d="M152.979 246.23C152.979 246.23 146.125 238.801 150.69 232.523C155.255 226.245 120.392 218.816 124.395 232.523C128.398 246.23 133.539 253.084 133.539 253.084L152.979 246.23Z" fill="#F8C198"/>
<g opacity="0.2">
<path opacity="0.2" d="M316.892 234.922C316.563 236.813 314.973 238.184 313.958 239.815C311.648 243.502 312.848 248.835 316.234 251.466C315.747 250.233 315.547 248.904 315.648 247.582C315.749 246.259 316.148 244.977 316.817 243.831C317.838 242.207 319.429 240.83 319.751 238.938C320.121 236.793 318.784 235.011 316.92 233.729C316.969 234.126 316.959 234.528 316.892 234.922Z" fill="white"/>
<path opacity="0.2" d="M302.614 248.108C302.394 247.594 302.189 247.073 302.011 246.552C301.64 245.463 301.071 244.126 299.92 244.092C299.569 244.102 299.224 244.191 298.912 244.352C297.387 245.046 296.111 246.189 295.253 247.628C294.396 249.068 293.998 250.734 294.114 252.405C294.241 253.413 294.58 254.383 295.108 255.251C295.636 256.119 296.341 256.866 297.178 257.443C297.081 257.104 297.012 256.758 296.972 256.408C296.857 254.737 297.254 253.07 298.112 251.631C298.969 250.192 300.246 249.049 301.771 248.355C302.036 248.226 302.321 248.143 302.614 248.108Z" fill="white"/>
<path opacity="0.2" d="M297.781 258.964C289.446 259.314 275.996 256.134 269.368 249.369C274.317 259.896 294.765 264.303 303.642 262.61C302.431 262.57 301.252 262.211 300.223 261.571C299.195 260.932 298.352 260.032 297.781 258.964Z" fill="white"/>
<path opacity="0.2" d="M317.16 253.317C315.158 255.668 311.278 256.161 308.42 254.77C307.486 254.31 306.63 253.706 305.883 252.981C306.991 255.453 308.889 257.488 311.278 258.765C314.486 260.321 318.969 259.526 320.662 256.387C319.221 255.727 318.003 254.659 317.16 253.317Z" fill="white"/>
</g>
<path opacity="0.2" d="M460.542 253.084C460.542 253.084 378.223 385.688 342.742 392.548C340.692 392.959 338.613 393.213 336.525 393.309C339.38 393.39 342.236 393.135 345.031 392.548C380.478 385.695 462.798 253.084 462.798 253.084L460.96 252.433C460.707 252.865 460.542 253.084 460.542 253.084Z" fill="white"/>
<path opacity="0.2" d="M135.829 253.084C135.829 253.084 218.148 385.688 253.629 392.548C255.679 392.959 257.758 393.213 259.846 393.309C256.991 393.39 254.135 393.135 251.339 392.548C215.893 385.695 133.573 253.084 133.573 253.084L135.41 252.433C135.664 252.865 135.829 253.084 135.829 253.084Z" fill="white"/>
<path d="M298.186 347.397C305.392 347.397 312.529 348.816 319.187 351.573C325.845 354.331 331.895 358.372 336.991 363.468C342.087 368.563 346.13 374.612 348.888 381.269C351.646 387.926 353.065 395.061 353.065 402.267V425.13H243.306V402.267C243.306 395.061 244.725 387.926 247.483 381.269C250.241 374.612 254.284 368.563 259.38 363.468C264.476 358.372 270.526 354.331 277.184 351.573C283.842 348.816 290.979 347.397 298.186 347.397Z" fill="#FF9800"/>
<path opacity="0.2" d="M298.754 347.684C296.758 347.684 294.762 347.792 292.777 348.007C293.462 348.007 294.086 347.965 294.751 347.965C309.306 347.965 323.265 353.746 333.557 364.036C343.849 374.327 349.631 388.283 349.631 402.836V425.411H353.634V402.555C353.634 388.002 347.852 374.046 337.56 363.755C327.268 353.465 313.309 347.684 298.754 347.684Z" fill="white"/>
<path opacity="0.2" d="M297.617 347.684C299.613 347.684 301.609 347.792 303.594 348.007C302.908 348.007 302.285 347.965 301.62 347.965C287.065 347.965 273.106 353.746 262.814 364.036C252.522 374.327 246.74 388.283 246.74 402.836V425.411H242.737V402.555C242.737 388.002 248.519 374.046 258.811 363.755C269.103 353.465 283.061 347.684 297.617 347.684Z" fill="white"/>
<path d="M314.192 348.253C314.192 339.415 307.025 332.25 298.185 332.25C289.346 332.25 282.179 339.415 282.179 348.253V354.826C282.179 363.664 289.346 370.829 298.185 370.829C307.025 370.829 314.192 363.664 314.192 354.826V348.253Z" fill="#F8C198"/>
<defs>
<linearGradient id="paint0_linear" x1="501.431" y1="431.778" x2="501.431" y2="71.9631" gradientUnits="userSpaceOnUse">
<stop stop-color="#808080" stop-opacity="0.25"/>
<stop offset="0.54" stop-color="#808080" stop-opacity="0.12"/>
<stop offset="1" stop-color="#808080" stop-opacity="0.1"/>
</linearGradient>
<linearGradient id="paint1_linear" x1="25544.2" y1="227477" x2="25544.2" y2="38573.6" gradientUnits="userSpaceOnUse">
<stop stop-color="#808080" stop-opacity="0.25"/>
<stop offset="0.54" stop-color="#808080" stop-opacity="0.12"/>
<stop offset="1" stop-color="#808080" stop-opacity="0.1"/>
</linearGradient>
<linearGradient id="paint2_linear" x1="93.5685" y1="130.219" x2="93.5685" y2="108.973" gradientUnits="userSpaceOnUse">
<stop stop-opacity="0.12"/>
<stop offset="0.55" stop-opacity="0.09"/>
<stop offset="1" stop-opacity="0.02"/>
</linearGradient>
<linearGradient id="paint3_linear" x1="86305.5" y1="5176.55" x2="86305.5" y2="4517.91" gradientUnits="userSpaceOnUse">
<stop stop-opacity="0.12"/>
<stop offset="0.55" stop-opacity="0.09"/>
<stop offset="1" stop-opacity="0.02"/>
</linearGradient>
<linearGradient id="paint4_linear" x1="86187.6" y1="6229.26" x2="86187.6" y2="5570.62" gradientUnits="userSpaceOnUse">
<stop stop-opacity="0.12"/>
<stop offset="0.55" stop-opacity="0.09"/>
<stop offset="1" stop-opacity="0.02"/>
</linearGradient>
<linearGradient id="paint5_linear" x1="86187.6" y1="7281.98" x2="86187.6" y2="6623.35" gradientUnits="userSpaceOnUse">
<stop stop-opacity="0.12"/>
<stop offset="0.55" stop-opacity="0.09"/>
<stop offset="1" stop-opacity="0.02"/>
</linearGradient>
<linearGradient id="paint6_linear" x1="86187.6" y1="8334.69" x2="86187.6" y2="7676.05" gradientUnits="userSpaceOnUse">
<stop stop-opacity="0.12"/>
<stop offset="0.55" stop-opacity="0.09"/>
<stop offset="1" stop-opacity="0.02"/>
</linearGradient>
<linearGradient id="paint7_linear" x1="86187.6" y1="9387.4" x2="86187.6" y2="8728.77" gradientUnits="userSpaceOnUse">
<stop stop-opacity="0.12"/>
<stop offset="0.55" stop-opacity="0.09"/>
<stop offset="1" stop-opacity="0.02"/>
</linearGradient>
<linearGradient id="paint8_linear" x1="86187.6" y1="10440.1" x2="86187.6" y2="9781.5" gradientUnits="userSpaceOnUse">
<stop stop-opacity="0.12"/>
<stop offset="0.55" stop-opacity="0.09"/>
<stop offset="1" stop-opacity="0.02"/>
</linearGradient>
<linearGradient id="paint9_linear" x1="86187.6" y1="11492.8" x2="86187.6" y2="10834.2" gradientUnits="userSpaceOnUse">
<stop stop-opacity="0.12"/>
<stop offset="0.55" stop-opacity="0.09"/>
<stop offset="1" stop-opacity="0.02"/>
</linearGradient>
<linearGradient id="paint10_linear" x1="86187.6" y1="12545.5" x2="86187.6" y2="11886.9" gradientUnits="userSpaceOnUse">
<stop stop-opacity="0.12"/>
<stop offset="0.55" stop-opacity="0.09"/>
<stop offset="1" stop-opacity="0.02"/>
</linearGradient>
<linearGradient id="paint11_linear" x1="86187.6" y1="108.973" x2="86187.6" y2="108.973" gradientUnits="userSpaceOnUse">
<stop stop-opacity="0.12"/>
<stop offset="0.55" stop-opacity="0.09"/>
<stop offset="1" stop-opacity="0.02"/>
</linearGradient>
<linearGradient id="paint12_linear" x1="6013.06" y1="4891.09" x2="26057.3" y2="4891.09" gradientUnits="userSpaceOnUse">
<stop stop-opacity="0.12"/>
<stop offset="0.55" stop-opacity="0.09"/>
<stop offset="1" stop-opacity="0.02"/>
</linearGradient>
<linearGradient id="paint13_linear" x1="6013.06" y1="5921.87" x2="26057.3" y2="5921.87" gradientUnits="userSpaceOnUse">
<stop stop-opacity="0.12"/>
<stop offset="0.55" stop-opacity="0.09"/>
<stop offset="1" stop-opacity="0.02"/>
</linearGradient>
<linearGradient id="paint14_linear" x1="6013.06" y1="6952.66" x2="26057.3" y2="6952.66" gradientUnits="userSpaceOnUse">
<stop stop-opacity="0.12"/>
<stop offset="0.55" stop-opacity="0.09"/>
<stop offset="1" stop-opacity="0.02"/>
</linearGradient>
<linearGradient id="paint15_linear" x1="6013.06" y1="8005.37" x2="26057.3" y2="8005.37" gradientUnits="userSpaceOnUse">
<stop stop-opacity="0.12"/>
<stop offset="0.55" stop-opacity="0.09"/>
<stop offset="1" stop-opacity="0.02"/>
</linearGradient>
<linearGradient id="paint16_linear" x1="6013.06" y1="9058.08" x2="26057.3" y2="9058.08" gradientUnits="userSpaceOnUse">
<stop stop-opacity="0.12"/>
<stop offset="0.55" stop-opacity="0.09"/>
<stop offset="1" stop-opacity="0.02"/>
</linearGradient>
<linearGradient id="paint17_linear" x1="6013.06" y1="10110.8" x2="26057.3" y2="10110.8" gradientUnits="userSpaceOnUse">
<stop stop-opacity="0.12"/>
<stop offset="0.55" stop-opacity="0.09"/>
<stop offset="1" stop-opacity="0.02"/>
</linearGradient>
<linearGradient id="paint18_linear" x1="54652.3" y1="17735.1" x2="303900" y2="17735.1" gradientUnits="userSpaceOnUse">
<stop stop-color="#808080" stop-opacity="0.25"/>
<stop offset="0.54" stop-color="#808080" stop-opacity="0.12"/>
<stop offset="1" stop-color="#808080" stop-opacity="0.1"/>
</linearGradient>
<linearGradient id="paint19_linear" x1="179600" y1="2413.16" x2="179600" y2="1370.73" gradientUnits="userSpaceOnUse">
<stop stop-color="#808080" stop-opacity="0.25"/>
<stop offset="0.54" stop-color="#808080" stop-opacity="0.12"/>
<stop offset="1" stop-color="#808080" stop-opacity="0.1"/>
</linearGradient>
<linearGradient id="paint20_linear" x1="218626" y1="144565" x2="218626" y2="83369.9" gradientUnits="userSpaceOnUse">
<stop stop-color="#808080" stop-opacity="0.25"/>
<stop offset="0.54" stop-color="#808080" stop-opacity="0.12"/>
<stop offset="1" stop-color="#808080" stop-opacity="0.1"/>
</linearGradient>
</defs>
</svg>
